<?xml version="1.0" encoding="UTF-8"?>
<svg id="Layer_1" data-name="Layer 1" xmlns="http://www.w3.org/2000/svg" width="180" height="170" viewBox="0 0 180.18 170">
  <defs>
    <style>
      .cls-1 {
        fill: #231f20;
      }

      .cls-1, .cls-2, .cls-3 {
        fill-rule: evenodd;
      }

      .cls-2 {
        fill: #939598;
      }

      .cls-3 {
        fill: #00a651;
      }
    </style>
  </defs>
  <path class="cls-2" d="m112.36,20.92c22.95,0,43.14,12.17,54.47,30.39h-26.13c-9.22-10.19-22.53-16.6-37.29-16.6-9.33,0-18.08,2.56-25.58,7.02-1.07-4.3-1.73-7.6-1.82-9.43,10.34-7.16,22.87-11.37,36.36-11.37h-.01Zm-57.93,75.58c5.23,22.19,25.22,38.8,48.97,38.8,13.95,0,26.6-5.73,35.72-14.95h26.64c-11.5,17.29-31.16,28.73-53.4,28.73-31.06,0-57.07-22.29-62.88-51.69,1.68-.29,3.33-.59,4.95-.89h0Z"/>
  <path class="cls-1" d="m150.61,78.06h22.52v10.84h-22.52v15.66h22.52v.51c-.14.32-.23.74-.26,1.26-.2,2.93-2.6,6.96-3.99,9.07h-31.66v-60.22h30.97-.02s4.58,6.2,4.96,10.35v.49h-22.52v12.04h0Z"/>
  <polygon class="cls-1" points="88.74 54.9 131.77 54.9 131.77 66.22 116.91 66.22 116.91 116.5 103.6 116.5 103.6 66.22 88.74 66.22 88.74 54.9"/>
  <path class="cls-3" d="m24.48,83.47c-3.95.19-9.65,1.62-7.9,9.93.71.14,1.43.27,2.16.38-5.09,9.38-8.81,16.98-9.51,20.32-2.67,12.69,10.68,12.69,12.69,8.01.81-1.88,7.35-14.27,14.89-28.4,10.2-1.1,20.47-3.48,27.85-4.91,3.02-.58,5.52-1.09,7.54-1.5,4.82,15.85,10.21,31.12,13.83,34.14,8.01,6.68,17.36,2,11.35-6.68-4.67-9.35-24.7-79.78-26.04-84.14-4.01-15.36-13.01-3.6-13.36-2.67,0,0-19.17,30.26-33.5,55.51h0Zm19.57-3.3c8.98-16.78,17.27-32.17,17.27-32.17,0,0,3.24,12.94,7.54,28-5.46.89-15.86,2.61-24.81,4.17Z"/>
</svg>