<?xml version="1.0" encoding="UTF-8"?>
<svg id="Layer_1" data-name="Layer 1" xmlns="http://www.w3.org/2000/svg" width="304" height="170" viewBox="0 0 304 170">
  <defs>
    <style>
      .cls-1 {
        fill: #231f20;
      }
    </style>
  </defs>
  <g>
    <path class="cls-1" d="m5.34,75.09v-41.67h26.69v5.97H12.09v11.58h18.09v5.97H12.09v12.18h19.94v5.97s-26.69,0-26.69,0Z"/>
    <path class="cls-1" d="m40.75,33.42h14.75c2.67,0,5.08.44,7.25,1.31,2.17.88,4.02,2.18,5.55,3.91,1.53,1.73,2.72,3.9,3.55,6.51.84,2.61,1.25,5.64,1.25,9.1s-.42,6.5-1.25,9.1c-.84,2.61-2.02,4.78-3.55,6.51-1.53,1.73-3.38,3.04-5.55,3.91-2.17.88-4.59,1.31-7.25,1.31h-14.75v-41.66Zm14.75,35.7c3.1,0,5.61-.98,7.52-2.93,1.91-1.95,2.87-4.82,2.87-8.6v-6.69c0-3.78-.95-6.65-2.87-8.6-1.91-1.95-4.42-2.93-7.52-2.93h-8v29.73h8v.02Z"/>
    <path class="cls-1" d="m81.52,33.42h18.45c3.46,0,6.18.98,8.15,2.93,1.97,1.95,2.96,4.56,2.96,7.82,0,1.55-.22,2.88-.66,3.97s-1,1.99-1.67,2.69c-.68.7-1.45,1.21-2.33,1.55s-1.73.55-2.57.63v.36c.84.04,1.76.24,2.78.6,1.02.36,1.96.93,2.84,1.7s1.61,1.77,2.21,2.98c.6,1.21.9,2.7.9,4.45s-.27,3.24-.81,4.72c-.54,1.47-1.28,2.75-2.24,3.82-.95,1.07-2.09,1.92-3.4,2.54-1.31.62-2.75.93-4.3.93h-20.3v-41.69h-.01Zm6.75,17.61h10.45c1.67,0,2.97-.43,3.88-1.28.91-.86,1.37-2.08,1.37-3.67v-1.91c0-1.59-.46-2.82-1.37-3.67-.92-.86-2.21-1.28-3.88-1.28h-10.45v11.82h0Zm0,18.26h11.58c1.75,0,3.12-.46,4.12-1.37.99-.92,1.49-2.23,1.49-3.94v-2.03c0-1.71-.5-3.02-1.49-3.94s-2.37-1.37-4.12-1.37h-11.58v12.66h0Z"/>
    <path class="cls-1" d="m158.63,75.81c-3.5,0-6.48-.64-8.93-1.91-2.45-1.27-4.55-2.98-6.3-5.13l4.66-4.36c1.47,1.79,3.09,3.14,4.87,4.06,1.77.92,3.79,1.37,6.06,1.37,2.67,0,4.68-.6,6.03-1.79,1.35-1.19,2.03-2.81,2.03-4.84,0-1.63-.48-2.93-1.43-3.88-.96-.96-2.65-1.67-5.07-2.15l-3.7-.66c-4.06-.76-7.1-2.09-9.13-4s-3.05-4.54-3.05-7.88c0-1.83.35-3.49,1.04-4.98.7-1.49,1.67-2.75,2.93-3.76,1.25-1.01,2.78-1.8,4.57-2.36,1.79-.56,3.8-.84,6.03-.84,3.14,0,5.87.55,8.18,1.64s4.28,2.68,5.91,4.75l-4.72,4.18c-1.07-1.39-2.39-2.51-3.94-3.34-1.55-.84-3.48-1.25-5.79-1.25s-4.24.48-5.55,1.43c-1.31.96-1.97,2.35-1.97,4.18s.54,3.06,1.61,3.91c1.07.86,2.75,1.5,5.02,1.94l3.7.78c4.18.8,7.23,2.15,9.16,4.06s2.9,4.54,2.9,7.88c0,1.95-.34,3.72-1.01,5.31-.68,1.59-1.66,2.96-2.96,4.09-1.29,1.13-2.88,2.01-4.75,2.63-1.87.62-4,.93-6.39.93h-.01Z"/>
    <path class="cls-1" d="m196.3,39.39v35.7h-6.75v-35.7h-12.42v-5.97h31.58v5.97h-12.42.01Z"/>
    <path class="cls-1" d="m215.28,75.09v-41.67h26.69v5.97h-19.94v11.58h18.09v5.97h-18.09v12.18h19.94v5.97s-26.69,0-26.69,0Z"/>
    <path class="cls-1" d="m282.56,43.21h-.3l-3.28,6.75-9.13,16.66-9.13-16.66-3.28-6.75h-.3v31.88h-6.45v-41.67h8l11.16,21.19h.36l11.16-21.19h7.64v41.67h-6.45v-31.88Z"/>
  </g>
  <g>
    <path class="cls-1" d="m19.64,137.16c-2.12.3-4.27.66-6.33,1.02v5.55c0,.89-.18,1.25-.87,1.52-.69.24-1.91.24-3.85.24-.06-.42-.27-.9-.48-1.31,1.64.06,2.92.03,3.31,0,.42-.03.51-.12.51-.45v-5.34c-2.3.36-4.42.72-6.15.98l-.24-1.34c1.73-.27,3.97-.6,6.39-.95v-2.3c1.37-.72,2.9-1.88,4-2.99h-5.73c-1.19.96-2.45,1.85-3.76,2.6-.24-.27-.75-.78-1.1-1.07,2.6-1.4,4.96-3.22,6.99-5.37h-6.87v-1.31h5.55v-3.52h-4.27v-1.31h4.27v-3.37h1.37v3.37h3.28v1.31h-3.28v3.52h1.11c1.82-2.24,3.34-4.75,4.51-7.52l1.37.42c-1.11,2.63-2.48,4.98-4.12,7.1h4.6v1.31h-5.67c-.78.93-1.61,1.79-2.51,2.6h5.49l.27-.09.93.66c-1.34,1.52-3.28,3.08-5.05,4.15v1.61l6.3-1.02.03,1.31h0Zm10.9-11.8c-.78,5.05-1.97,9.1-3.88,12.39,1.55,2.84,3.52,5.1,6.06,6.45-.36.27-.81.78-1.04,1.19-2.42-1.43-4.36-3.55-5.91-6.27-1.79,2.69-4.21,4.75-7.34,6.42-.15-.33-.63-.96-.93-1.25,3.31-1.61,5.73-3.79,7.52-6.63-1.37-2.81-2.36-6.12-3.1-9.73-.69,1.7-1.52,3.22-2.39,4.51-.27-.27-.89-.75-1.22-.95,2.33-3.1,3.94-8,4.84-13.08l1.46.24c-.33,1.85-.78,3.67-1.31,5.37h9.26v1.34h-2.02Zm-7.73.18c.63,3.94,1.61,7.58,3.05,10.66,1.55-2.96,2.57-6.54,3.19-10.84h-6.21l-.03.18h0Z"/>
    <path class="cls-1" d="m67.88,122.87c-1.58,1.61-3.19,3.05-4.78,4.3l14.33-.72c-1.19-.99-2.51-1.94-3.7-2.78l1.1-.72c2.66,1.76,5.85,4.33,7.43,6.09l-1.19.9c-.54-.66-1.37-1.46-2.33-2.3-15.76.84-17.11.93-17.94,1.22-.09-.33-.3-1.04-.48-1.46.6-.09,1.43-.72,2.45-1.58.6-.45,1.79-1.55,3.22-2.96h-8.27v-1.31h9.52c1.04-1.1,2.12-2.3,3.05-3.52l1.4.69c-.84.96-1.7,1.94-2.54,2.84h14.54v1.31h-15.82.01Zm12.33,20.75c0,.99-.27,1.4-1.07,1.64-.81.21-2.33.21-4.78.21-.06-.39-.3-.9-.48-1.31,1.97.09,3.73.09,4.18.06.51-.03.66-.18.66-.63v-4.81c-4.96,1.04-10.15,2.03-13.91,2.75l-.57-1.4c3.58-.54,9.16-1.49,14.48-2.48v-6.09h-15.73v4.42c0,3.02-.54,6.93-3.55,9.64-.18-.3-.75-.81-1.07-.95,2.84-2.54,3.22-5.97,3.22-8.72v-5.67h18.63v13.34h0Zm-4.69-6.27c-2.6-1.13-7.52-2.45-11.4-3.08l.45-1.01c3.88.57,8.78,1.79,11.4,2.9l-.45,1.19Z"/>
    <path class="cls-1" d="m132.32,123.85v13.43h-1.46v-1.82h-9.64v9.97h-1.46v-9.97h-9.64v1.97h-1.4v-13.58h11.04v-5.4h1.46v5.4h11.11,0Zm-12.57,10.21v-8.81h-9.64v8.81h9.64Zm11.11,0v-8.81h-9.64v8.81h9.64Z"/>
    <path class="cls-1" d="m161.62,129.43c-.54,3.25-1.58,8.24-2.93,11.34l-1.37-.63c1.4-2.99,2.45-7.73,2.93-11.02l1.37.3h0Zm4.48-2.8v15.28c0,1.34.42,1.67,2.24,1.67h6.63c2.03,0,2.3-1.13,2.54-6.57.39.27.96.54,1.37.66-.27,5.67-.78,7.28-3.91,7.28h-6.66c-2.84,0-3.67-.63-3.67-3.07v-15.26h1.46Zm1.13-6.8c2.81,2.03,6.3,4.96,7.97,6.84l-1.02,1.02c-1.67-1.88-5.07-4.9-7.91-6.96l.95-.9h.01Zm12.99,8.63c1.79,3.58,3.52,8.24,4.15,11.31l-1.4.48c-.6-3.08-2.3-7.76-4.03-11.31l1.28-.48Z"/>
  </g>
  <g>
    <path class="cls-1" d="m5.34,110.27v-25.47h16.31v3.65h-12.19v7.08h11.05v3.65h-11.05v7.44h12.19v3.65s-16.31,0-16.31,0Z"/>
    <path class="cls-1" d="m38.25,107.13h-.18c-.41,1.12-1.09,1.99-2.02,2.63-.94.63-2.04.95-3.3.95-2.41,0-4.27-.87-5.58-2.61s-1.97-4.18-1.97-7.32.66-5.58,1.97-7.31c1.31-1.74,3.17-2.61,5.58-2.61,1.26,0,2.37.31,3.3.93.94.62,1.61,1.5,2.02,2.64h.18v-11.16h3.98v27h-3.98v-3.14Zm-4.31.15c1.22,0,2.24-.3,3.07-.89.83-.6,1.24-1.38,1.24-2.35v-6.49c0-.97-.41-1.76-1.24-2.35-.83-.6-1.85-.89-3.07-.89-1.39,0-2.49.44-3.32,1.33s-1.24,2.06-1.24,3.52v3.28c0,1.46.41,2.63,1.24,3.52s1.93,1.33,3.32,1.33h0Z"/>
    <path class="cls-1" d="m59.41,107.13h-.15c-.17.46-.39.91-.68,1.35-.28.44-.63.82-1.06,1.15s-.94.59-1.53.78c-.6.19-1.28.29-2.06.29-1.97,0-3.5-.63-4.58-1.9-1.08-1.27-1.62-3.08-1.62-5.44v-12.08h3.98v11.57c0,2.94,1.22,4.42,3.65,4.42.51,0,1.01-.07,1.5-.2s.92-.33,1.29-.6c.38-.27.68-.61.91-1.02.23-.41.35-.9.35-1.46v-12.7h3.98v18.97h-3.98v-3.14h0Z"/>
    <path class="cls-1" d="m76.42,110.71c-1.36,0-2.58-.23-3.65-.69s-1.97-1.12-2.7-1.99c-.73-.86-1.29-1.91-1.68-3.14-.39-1.23-.58-2.6-.58-4.1s.19-2.88.58-4.1c.39-1.23.95-2.27,1.68-3.14.73-.86,1.63-1.53,2.7-1.99s2.29-.69,3.65-.69c1.9,0,3.45.43,4.67,1.28s2.1,1.98,2.66,3.39l-3.28,1.53c-.27-.88-.74-1.57-1.41-2.1-.67-.52-1.55-.78-2.64-.78-1.46,0-2.56.45-3.3,1.37-.74.91-1.11,2.09-1.11,3.55v3.38c0,1.46.37,2.64,1.11,3.55s1.84,1.36,3.3,1.36c1.17,0,2.1-.29,2.79-.86s1.25-1.33,1.66-2.28l3.03,1.61c-.63,1.56-1.58,2.76-2.85,3.6-1.26.84-2.81,1.25-4.63,1.25h0Z"/>
    <path class="cls-1" d="m101.59,110.27c-1.05,0-1.85-.3-2.41-.89-.56-.6-.9-1.36-1.02-2.28h-.18c-.36,1.19-1.03,2.09-2.01,2.7-.97.61-2.15.91-3.54.91-1.97,0-3.48-.51-4.54-1.53s-1.59-2.4-1.59-4.12c0-1.9.69-3.32,2.06-4.27s3.39-1.42,6.04-1.42h3.43v-1.61c0-1.17-.32-2.07-.95-2.7s-1.62-.95-2.96-.95c-1.12,0-2.03.24-2.74.73-.71.49-1.3,1.11-1.79,1.86l-2.37-2.15c.63-1.07,1.52-1.95,2.66-2.64,1.14-.69,2.64-1.04,4.49-1.04,2.46,0,4.34.57,5.66,1.71,1.31,1.14,1.97,2.79,1.97,4.93v9.52h2.01v3.25h-2.23.01Zm-8.03-2.6c1.24,0,2.26-.27,3.06-.82s1.2-1.28,1.2-2.21v-2.74h-3.36c-2.75,0-4.12.85-4.12,2.55v.66c0,.85.28,1.49.86,1.92.57.43,1.36.64,2.35.64h.01Z"/>
    <path class="cls-1" d="m112.87,110.27c-1.39,0-2.43-.36-3.14-1.08s-1.06-1.73-1.06-3.05v-11.6h-2.96v-3.25h1.6c.66,0,1.11-.15,1.37-.44s.38-.77.38-1.42v-3.32h3.57v5.18h3.98v3.25h-3.98v12.48h3.69v3.25h-3.47.02Z"/>
    <path class="cls-1" d="m122.94,87.91c-.83,0-1.43-.19-1.81-.58s-.57-.89-.57-1.5v-.62c0-.61.19-1.11.57-1.5s.98-.58,1.81-.58,1.42.2,1.79.58c.37.39.55.89.55,1.5v.62c0,.61-.18,1.11-.55,1.5s-.96.58-1.79.58Zm-2.01,3.39h3.98v18.97h-3.98v-18.97Z"/>
    <path class="cls-1" d="m138.04,110.71c-1.31,0-2.51-.23-3.59-.69s-2-1.12-2.76-1.99c-.75-.86-1.34-1.91-1.75-3.14-.41-1.23-.62-2.6-.62-4.1s.21-2.88.62-4.1c.41-1.23,1-2.27,1.75-3.14s1.67-1.53,2.76-1.99c1.08-.46,2.28-.69,3.59-.69s2.51.23,3.59.69,2,1.13,2.76,1.99c.75.86,1.34,1.91,1.75,3.14.41,1.23.62,2.6.62,4.1s-.21,2.88-.62,4.1c-.41,1.23-1,2.27-1.75,3.14-.75.86-1.67,1.53-2.76,1.99-1.08.46-2.28.69-3.59.69Zm0-3.32c1.36,0,2.46-.42,3.28-1.25.83-.83,1.24-2.09,1.24-3.75v-3.19c0-1.67-.41-2.92-1.24-3.76-.83-.83-1.92-1.25-3.28-1.25s-2.46.42-3.28,1.25c-.83.84-1.24,2.09-1.24,3.76v3.19c0,1.67.41,2.92,1.24,3.75.83.84,1.92,1.25,3.28,1.25Z"/>
    <path class="cls-1" d="m151.18,110.27v-18.97h3.98v3.14h.18c.41-1.02,1.04-1.87,1.88-2.55s1.99-1.02,3.45-1.02c1.94,0,3.46.64,4.54,1.92,1.08,1.28,1.62,3.1,1.62,5.45v12.04h-3.98v-11.53c0-2.97-1.19-4.45-3.58-4.45-.51,0-1.02.07-1.51.2s-.94.33-1.33.6-.7.61-.93,1.02c-.23.41-.35.9-.35,1.46v12.7h-3.98,0Z"/>
    <path class="cls-1" d="m190.8,110.71c-3.33,0-5.95-1.12-7.84-3.38-1.9-2.25-2.85-5.51-2.85-9.8,0-2.14.24-4.03.73-5.66s1.19-3,2.12-4.12c.92-1.12,2.05-1.96,3.37-2.54,1.33-.57,2.81-.86,4.47-.86,2.21,0,4.07.48,5.56,1.45,1.5.96,2.67,2.39,3.52,4.28l-3.47,1.9c-.44-1.22-1.11-2.18-2.02-2.9s-2.11-1.08-3.59-1.08c-1.97,0-3.51.67-4.63,2.01-1.12,1.34-1.68,3.2-1.68,5.57v3.88c0,2.37.56,4.22,1.68,5.57,1.12,1.34,2.66,2.01,4.63,2.01,1.53,0,2.78-.4,3.74-1.19s1.67-1.81,2.13-3.05l3.32,2.01c-.85,1.85-2.04,3.29-3.58,4.32-1.53,1.04-3.41,1.55-5.62,1.55v.03Z"/>
    <path class="cls-1" d="m211.53,110.71c-1.36,0-2.58-.23-3.65-.69s-1.98-1.12-2.74-1.99c-.75-.86-1.33-1.91-1.73-3.14-.4-1.23-.6-2.6-.6-4.1s.2-2.88.6-4.1c.4-1.23.98-2.27,1.73-3.14.75-.86,1.67-1.53,2.74-1.99s2.29-.69,3.65-.69,2.61.24,3.67.73c1.06.49,1.94,1.16,2.65,2.02.71.86,1.23,1.87,1.59,3.01.35,1.14.53,2.37.53,3.69v1.5h-13.02v.62c0,1.45.43,2.64,1.29,3.57s2.1,1.4,3.7,1.4c1.17,0,2.15-.25,2.95-.76.8-.51,1.48-1.2,2.04-2.07l2.34,2.31c-.71,1.17-1.73,2.1-3.07,2.8-1.34.69-2.9,1.04-4.67,1.04v-.02Zm0-16.75c-.68,0-1.31.12-1.88.37-.57.24-1.06.58-1.46,1.02-.4.44-.71.96-.93,1.57-.22.61-.33,1.28-.33,2.01v.26h8.83v-.36c0-1.46-.38-2.63-1.13-3.52s-1.79-1.33-3.1-1.33v-.02Z"/>
    <path class="cls-1" d="m224.37,110.27v-18.97h3.98v3.14h.18c.41-1.02,1.04-1.87,1.88-2.55s1.99-1.02,3.45-1.02c1.94,0,3.46.64,4.54,1.92,1.08,1.28,1.62,3.1,1.62,5.45v12.04h-3.98v-11.53c0-2.97-1.19-4.45-3.58-4.45-.51,0-1.02.07-1.51.2-.5.13-.94.33-1.33.6s-.7.61-.93,1.02c-.23.41-.35.9-.35,1.46v12.7h-3.98,0Z"/>
    <path class="cls-1" d="m250.78,110.27c-1.39,0-2.43-.36-3.14-1.08s-1.06-1.73-1.06-3.05v-11.6h-2.96v-3.25h1.6c.66,0,1.11-.15,1.37-.44s.38-.77.38-1.42v-3.32h3.57v5.18h3.98v3.25h-3.98v12.48h3.69v3.25h-3.47.02Z"/>
    <path class="cls-1" d="m258.85,110.27v-18.97h3.98v3.65h.18c.27-.97.83-1.82,1.68-2.55.85-.73,2.03-1.09,3.54-1.09h1.06v3.83h-1.57c-1.58,0-2.79.26-3.63.77-.84.51-1.26,1.26-1.26,2.26v12.11h-3.98Z"/>
    <path class="cls-1" d="m280.08,110.71c-1.36,0-2.58-.23-3.65-.69s-1.98-1.12-2.74-1.99c-.75-.86-1.33-1.91-1.73-3.14-.4-1.23-.6-2.6-.6-4.1s.2-2.88.6-4.1c.4-1.23.98-2.27,1.73-3.14.75-.86,1.67-1.53,2.74-1.99s2.29-.69,3.65-.69,2.61.24,3.67.73c1.06.49,1.94,1.16,2.65,2.02.71.86,1.23,1.87,1.59,3.01.35,1.14.53,2.37.53,3.69v1.5h-13.02v.62c0,1.45.43,2.64,1.29,3.57s2.1,1.4,3.7,1.4c1.17,0,2.15-.25,2.95-.76.8-.51,1.48-1.2,2.04-2.07l2.34,2.31c-.71,1.17-1.73,2.1-3.07,2.8-1.34.69-2.9,1.04-4.67,1.04v-.02Zm0-16.75c-.68,0-1.31.12-1.88.37-.57.24-1.06.58-1.46,1.02-.4.44-.71.96-.93,1.57-.22.61-.33,1.28-.33,2.01v.26h8.83v-.36c0-1.46-.38-2.63-1.13-3.52s-1.79-1.33-3.1-1.33v-.02Z"/>
  </g>
</svg>