<?xml version="1.0" encoding="UTF-8"?>
<svg id="Layer_1" data-name="Layer 1" xmlns="http://www.w3.org/2000/svg" width="447" height="170" viewBox="0 0 447 170">
  <defs>
    <style>
      .cls-1 {
        fill: #21b7a3;
      }

      .cls-2 {
        fill: #263a62;
      }

      .cls-3 {
        fill: #263c64;
      }

      .cls-4 {
        fill: #e52226;
      }
    </style>
  </defs>
  <g>
    <g>
      <g>
        <path class="cls-1" d="m20.81,74.91c.04.29.12.49.25.59.13.11.33.14.61.11.26-.03.43-.11.52-.25.09-.13.12-.35.08-.64,0-.02,0-.05-.01-.08s-.01-.07-.02-.09l-1.45.18v.17h.02Z"/>
        <path class="cls-1" d="m89.76,72.66c-.26-.02-.44.03-.56.14s-.18.32-.2.61v.17l1.46.1v-.17c.02-.29-.03-.5-.13-.63-.11-.13-.3-.2-.58-.22h.01Z"/>
        <path class="cls-1" d="m44.43,102.41l-.08-.02s-.07-.02-.09-.03l-.47,1.39s.05.02.09.03.06.03.08.03c.28.09.49.11.64.03.15-.07.27-.24.36-.5.08-.24.08-.44,0-.58s-.26-.26-.53-.35Z"/>
        <path class="cls-1" d="m60.8,105.34c-.09-.66-.18-1.06-.29-1.21-.1-.14-.27-.2-.49-.17-.21.03-.35.13-.41.3-.06.17-.05.58.04,1.24l.14,1.08c.09.65.18,1.04.29,1.2.1.15.27.21.49.19.22-.03.36-.13.42-.3.06-.17.05-.58-.04-1.24l-.14-1.08h-.01Z"/>
        <path class="cls-1" d="m19.76,70.86c.36,0,.63-.09.81-.29.17-.21.27-.53.28-.98v-.14l-2.23-.05v.17c-.01.42.08.74.27.96.19.22.48.33.87.34h0Z"/>
        <path class="cls-1" d="m74.16,46.17c.15.11.31.12.46.03s.43-.39.83-.92l.66-.87c.4-.53.62-.88.66-1.05s-.02-.31-.18-.42c-.15-.11-.3-.12-.46-.03s-.43.39-.83.92l-.66.87c-.39.52-.61.87-.65,1.04-.04.17.01.32.17.43h0Z"/>
        <polygon class="cls-1" points="47.69 40.22 46.61 37.8 47.02 40.41 47.69 40.22"/>
        <path class="cls-1" d="m105.35,67.09v-.23s-.02-.06-.04-.07c-.08-.06-.03-.18-.13-.22-.01-.15-.14-.22-.23-.32-.12,0-.19-.14-.32-.12-.05,0-.1-.04-.2-.08h-.77s-.07-.06-.1-.09h-.91s-.05-.04-.07-.06c-.01,0-.02-.03-.03-.03h-.82s-.05-.05-.07-.07c-.01,0-.02-.02-.04-.02h-.99l-.09-.09h-.82s-.06-.06-.1-.1h-1.46l-.08-.08h-.26c-.07-.04-.1-.13-.2-.09-.11-.11-.21-.22-.28-.28-.11-.22-.2-.4-.32-.63v-.5s-.06-.06-.09-.08v-.36s-.06-.07-.09-.1v-.54s-.04-.05-.09-.1c-.02-.1,0-.24,0-.37-.02-.02-.04-.04-.08-.08v-.37s-.06-.06-.1-.1v-.27s-.06-.06-.09-.09v-.34c-.07-.09-.15-.17-.08-.28-.04-.05-.07-.08-.1-.11v-.74s.05-.03.06-.05c.05-.1.09-.2.15-.33l.11-.11s.11-.1.16-.16c.06-.07.14-.1.22-.13.06-.03.11-.15.16-.15.1,0,.14-.1.23-.11.07,0,.13-.05.19-.09.17-.11.38-.12.55-.23.17-.12.38-.19.57-.29.17-.09.36-.17.53-.27.08-.04.14-.02.22-.04.06-.06.12-.12.19-.18h.18l.17-.17s.11,0,.21,0c.03-.05.08-.12.12-.18h.22c.07-.06.13-.12.2-.19h.18c.06-.06.11-.11.16-.16.29-.03.52-.22.78-.33s.5-.26.76-.38c.24-.12.48-.23.72-.35v-.28c-.11-.06-.09-.22-.18-.29,0-.29-.23-.48-.3-.74-.13-.08,0-.28-.16-.35.03-.11-.13-.16-.1-.28-.12-.06-.05-.19-.1-.28s-.11-.17-.16-.25c.06-.15-.11-.24-.1-.37-.11-.07-.09-.21-.18-.29.02-.11-.14-.16-.09-.28.03-.1-.12-.13-.09-.24-.09-.08-.11-.17-.09-.28-.11-.07-.08-.22-.18-.29.02-.11-.13-.16-.1-.28-.14-.06-.03-.22-.12-.32-.07-.07-.09-.17-.14-.26-.03-.06-.05-.13-.09-.19-.06-.09-.08-.21-.16-.3-.06-.08.03-.22-.1-.28.01-.2-.13-.34-.2-.51-.03-.07-.07-.12-.09-.19-.02-.08-.13-.13-.1-.24.03-.09-.06-.13-.09-.19-.05-.12-.07-.25-.18-.34.03-.13-.05-.22-.1-.32-.04-.08-.07-.15-.11-.22-.11-.11-.21-.21-.33-.33h-.16s-.05-.05-.08-.08h-.45s-.04.02-.06.04c-.08.09-.25,0-.31.13-.12-.02-.22.08-.32.09-.18,0-.28.14-.43.19h-.23c-.1.05-.2.11-.33.18h-.23s-.07.06-.11.09h-.17s-.07.06-.1.09h-.18s-.07.06-.1.09h-.16c-.18.13-.41.1-.56.27h-.27s-.07.06-.11.09h-.17s-.07.06-.1.09h-.18s-.04.04-.08.09c-.05,0-.12,0-.19,0-.04.03-.08.08-.11.08-.11,0-.19.05-.28.09-.08.03-.16,0-.24.08-.07.06-.21,0-.27.11h-.18s-.07.06-.1.09h-.18s-.04.04-.08.08c-.08,0-.19,0-.29,0-.02.02-.04.04-.06.06-.19.1-.34-.04-.5-.08-.15-.04-.28-.13-.47-.21-.07-.07-.17-.18-.28-.3,0-.02.01-.07,0-.07-.09-.05-.07-.17-.13-.22-.09-.08-.14-.18-.2-.29-.04-.07-.03-.18-.13-.22-.09-.05-.07-.16-.13-.22-.09-.08-.14-.18-.2-.28-.04-.07-.04-.17-.12-.23-.07-.05-.13-.12-.2-.19.02-.07-.02-.11-.06-.16-.03-.03-.03-.08-.04-.13-.09-.09-.18-.19-.28-.28-.09-.08-.07-.22-.19-.29-.11-.07-.2-.19-.29-.29-.06-.06-.04-.17-.13-.22-.08-.05-.14-.11-.19-.16.03-.21-.11-.33-.17-.58v-.45s.05-.06.08-.09c-.05-.14.1-.23.1-.36.17-.13.22-.34.38-.48.25-.22.48-.47.71-.71v-.08c.13-.14.28-.26.36-.42.09-.17.24-.27.36-.4.12-.14.26-.26.38-.38v-.1c.17-.17.35-.35.52-.52.1-.1.23-.18.28-.29.05-.14.15-.22.24-.31.09-.1.23-.18.28-.29.11-.24.32-.39.5-.57.09-.09.09-.21.19-.29.08-.07.21-.13.2-.28.08-.08.16-.15.22-.23.08-.09.2-.14.22-.24v-.07c-.28-.28-.56-.56-.84-.84-.09-.09-.21-.15-.31-.23-.09-.08-.17-.17-.26-.26-.1-.1-.19-.19-.29-.29-.09-.09-.18-.16-.26-.26s-.22-.08-.29-.19c-.07-.1-.17-.17-.25-.26-.1-.1-.19-.19-.29-.29-.09-.09-.17-.17-.26-.26s-.17-.17-.26-.26-.19-.16-.26-.26c-.11-.15-.3-.19-.42-.32-.11-.12-.24-.23-.35-.36-.09-.1-.24-.1-.32-.22-.08-.11-.19-.2-.29-.29l-.29-.29c-.1-.1-.19-.19-.29-.29s-.21-.18-.29-.29c-.14-.19-.37-.24-.52-.42h-.76s-.09.12-.13.18h-.12c-.13.1-.2.27-.39.29-.11.11-.22.22-.32.32-.24.06-.34.28-.51.42-.09.08-.17.17-.26.26-.08.08-.17.15-.28.2-.1.05-.17.17-.23.24h-.12c-.11.11-.23.21-.32.33-.14.18-.37.24-.52.41s-.31.34-.49.48c-.09.07-.22.1-.28.2-.07.12-.21.1-.29.19-.07.08-.15.15-.22.23-.09.09-.17.18-.26.26-.08.06-.17.1-.25.17-.07.06-.13.13-.2.19h-.18s-.07.06-.1.09h-.64s-.07-.08-.1-.09c-.25-.06-.41-.25-.63-.36-.05-.11-.19-.08-.25-.16-.06-.07-.13-.11-.22-.14-.09-.03-.12-.16-.25-.17-.07,0-.12-.14-.2-.17-.12-.05-.25-.08-.34-.17-.08-.09-.22-.09-.29-.19-.08-.12-.24-.1-.33-.22-.06-.08-.2-.1-.3-.15-.09-.05-.16-.15-.25-.17-.13-.03-.16-.17-.29-.2-.09-.02-.16-.15-.25-.17-.12-.03-.17-.12-.24-.19-.08-.06-.14-.14-.17-.25-.02-.06-.13-.1-.15-.17-.02-.08-.04-.14-.1-.18v-.56s.04-.04.07-.07c.05-.08,0-.18.02-.26.05-.09.08-.19.14-.26.07-.08,0-.19.06-.25.09-.07.05-.21.16-.26v-.24c.05-.1.07-.2.13-.25.1-.08,0-.21.09-.28.09-.06,0-.2.07-.24.11-.08.02-.22.1-.28.08-.08.06-.16.07-.25.03-.03.06-.06.09-.1v-.18s.06-.07.09-.1v-.14c.05-.1.1-.2.18-.35v-.21c0-.07.12-.1.09-.19-.03-.11.08-.15.09-.24,0-.07,0-.14.06-.21.06-.06.05-.17.13-.22v-.23c.05-.1.1-.2.17-.33,0-.06.02-.16.03-.27.13-.06.02-.22.1-.27.11-.08.03-.2.09-.29.06-.08.1-.17.16-.28v-.25s.05-.05.08-.08v-.29s-.06-.07-.11-.13c-.04,0-.1,0-.17-.01-.21-.07-.39-.27-.65-.27-.05,0-.1-.08-.15-.08-.09,0-.13-.14-.24-.1-.12.05-.16-.14-.28-.1-.06-.09-.15-.08-.24-.09-.04,0-.07-.06-.11-.07-.13-.02-.22-.16-.37-.11-.07-.1-.22-.07-.29-.18-.13.04-.22-.05-.33-.09-.09-.04-.17-.09-.28-.1-.1,0-.19-.14-.3-.16-.12-.02-.22-.05-.32-.11-.1-.06-.2-.13-.33-.09-.04-.09-.16-.07-.22-.13-.07-.09-.19,0-.24-.07-.07-.07-.17-.05-.23-.12-.07-.09-.19,0-.24-.07s-.15-.04-.19-.1c-.06-.08-.18-.03-.22-.13-.17,0-.32-.13-.49-.13-.12-.13-.32-.12-.44-.26-.16.04-.27-.07-.4-.13s-.25-.13-.38-.19c-.01,0-.02-.02-.04-.04h-.25c-.11-.06-.21-.12-.33-.19h-.62c-.19.19-.39.39-.58.58.03.11-.13.16-.11.27v.1c-.06.06-.12.13-.18.19v.18c-.06.09-.19.12-.18.25-.38.71-.71,1.44-1.1,2.15,0,.13-.12.16-.18.25v.18c-.23.19-.28.5-.45.73-.03.04-.01.12-.02.21-.05.04-.12.1-.18.14v.21c-.05.05-.12.1-.16.16-.08.15-.15.3-.22.47-.13.13-.27.27-.42.42,0,0-.04-.01-.07,0-.04.02-.06.06-.1.09-.02.01-.06,0-.09.01s-.04.04-.08.07h-.66s-.04-.04-.08-.08h-.27s-.06-.06-.09-.09h-.45s-.07-.06-.11-.09h-.27s-.07-.06-.1-.09h-.45s-.04-.04-.08-.08c-.14-.02-.31,0-.47-.02-.02-.02-.04-.04-.08-.08h-.37s-.06-.06-.1-.1h-.27s-.06-.06-.09-.09h-.44c-.14-.12-.32-.14-.45-.26-.12-.11-.27-.17-.39-.28-.14-.12-.13-.35-.32-.4v-.2s-.06-.07-.09-.1v-.82s-.04-.04-.08-.08v-.46s-.06-.06-.09-.09v-1.26s-.06-.07-.1-.13v-.72l-.09-.09v-1.18s-.06-.07-.09-.11v-1.18s-.06-.07-.09-.1v-.15c-.05-.1-.08-.18-.13-.25-.05-.07-.12-.14-.17-.19h-.16c-.09-.04-.17-.09-.26-.14v-.14h-3.75v.14c-.07.04-.15.08-.26.13h-3.7s-.07.06-.1.09h-.08c-.15.14-.29.28-.43.42v.18s-.05.05-.08.08v1.1s-.06.06-.1.1v1.37s-.06.06-.09.09v.54s-.06.07-.09.11v1.45s-.04.05-.06.07c-.01.03-.03.05-.03.08v.32l-.07.07s-.03.02-.03.03v.82c-.1.06-.09.15-.09.27-.04.04-.09.09-.14.14-.06.07-.14.1-.14.22,0,.06-.1.11-.15.16s-.11.11-.16.16h-.09c-.05.05-.11.11-.17.17h-.26s-.07.06-.13.1h-.26s-.06.06-.1.1h-.37s-.06.06-.08.08h-.27s-.07.06-.1.09h-.46s-.04.04-.08.08h-.28l-.1.1h-.64s-.06.06-.1.1h-.27s-.06.06-.1.1h-.55s-.06.06-.08.08h-.37s-.06-.06-.1-.09h-.27l-.57-.57c-.18-.43-.41-.82-.59-1.23-.03-.06-.1-.11-.16-.16,0-.06.03-.14,0-.18-.15-.16-.14-.42-.36-.53v-.21c-.07-.04-.14-.1-.19-.13v-.23c-.06-.08-.15-.13-.19-.24-.09-.22-.23-.42-.32-.64-.1-.23-.22-.46-.33-.68-.11-.21-.19-.44-.34-.64.02-.15-.14-.18-.19-.29-.04-.11-.1-.2-.14-.31-.02-.04-.03-.08-.06-.15-.08-.08-.19-.19-.3-.3h-.18s-.04-.04-.09-.09c-.11-.02-.24,0-.37,0l-.08.08h-.25c-.06.04-.1.08-.15.1-.09.04-.2.06-.27.12-.08.08-.19.02-.24.07-.08.07-.18.08-.26.15-.08.07-.24,0-.31.12-.12,0-.19.14-.33.1-.03-.01-.09.08-.14.08-.1,0-.13.13-.24.1-.09-.03-.14.04-.19.09-.11-.04-.14.09-.24.1-.06,0-.13.05-.19.09-.04.02-.07.05-.13.08h-.27c-.04.07-.09.14-.11.19h-.33c-.07.06-.13.13-.19.18-.05,0-.1-.01-.14,0-.12.05-.22.16-.34.17-.14.01-.23.11-.36.13-.08.13-.28,0-.35.16-.12-.02-.19.14-.33.1-.07-.02-.13.09-.23.09-.09,0-.2.05-.27.11-.07.07-.17.05-.23.12-.06.06-.17.04-.22.13h-.23c-.17.07-.31.21-.51.2-.05.05-.11.11-.16.16-.16-.04-.28.06-.4.14-.09.05-.17.04-.26.06-.01.03-.02.07-.04.12.07.07.13.13.19.2v.18s.04.04.08.08c0,.06-.01.16.02.2.07.08.08.15.08.25,0,.07.11.1.09.19-.02.08.02.15.09.19v.25c.07.11.12.21.19.33v.32c.07.12.17.22.17.32,0,.15.14.26.1.42.15.09.03.3.18.38.01.08-.03.18.06.25.06.04.04.13.09.19.07.08,0,.23.12.31-.04.15.13.26.09.42.15.09.03.29.18.39.03.02,0,.12,0,.18.02.05.09.07.09.15,0,.05.06.1.09.15v.23c.05.1.11.2.18.33v.22c.06.11.12.21.19.33v.16s.06.07.09.1v.64c-.12.06-.08.18-.1.28-.19.19-.39.39-.58.58-.12-.06-.16.15-.28.1-.07.06-.13.16-.2.17-.12.02-.16.16-.25.18-.1.02-.15.08-.22.14-.03.03-.07.04-.11.06-.11.06-.22.16-.34.17-.15.02-.17.22-.33.19-.09.12-.25.16-.35.26-.12.11-.29.15-.38.29-.18-.03-.2.23-.38.19-.2.25-.48.36-.76.49-.03.01-.05.04-.06.05h-.69c-.16-.08-.28-.14-.44-.23-.06-.06-.14-.15-.23-.23-.13-.12-.24-.25-.41-.33-.15-.08-.22-.29-.42-.32-.01,0-.02-.02-.03-.03-.1-.1-.19-.2-.29-.29-.09-.08-.15-.17-.27-.23-.12-.05-.2-.17-.3-.26-.12-.1-.2-.27-.38-.29-.12-.12-.24-.24-.35-.36h-.09s-.02-.02-.03-.03c-.19-.19-.39-.39-.58-.58-.26-.07-.37-.33-.57-.48-.18-.01-.23-.18-.35-.27-.13-.09-.19-.29-.38-.29-.09-.13-.24-.16-.37-.26h-.52c-.13.07-.25.13-.46.24-.14.11-.28.35-.52.49h-.05c-.18.18-.36.37-.54.55h-.14c0,.09-.08.06-.11.1-.19.16-.41.29-.47.54h-.11c-.3.3-.6.59-.89.89-.03.03-.04.07-.06.11v.14s-.09.09-.13.13h-.29c-.07.07-.14.15-.22.22-.08.09-.17.17-.26.25-.07.07-.12.18-.25.16-.33.33-.66.66-.98.98-.05.01-.09.02-.13.03-.06.05-.02.11-.03.17,0,.05.02.11-.04.18h-.23c-.01.1-.08.16-.16.18-.15.05-.23.15-.3.28v.59c.05.08.17.12.18.23h.14c.13.13.3.24.38.39.08.15.19.26.3.38.12.13.25.26.39.39.09.08.09.21.19.29.08.06.16.12.17.25.01.07.12.13.18.2.17.17.34.34.52.52.06.23.31.32.41.51.17.31.46.51.68.77.1.11.23.19.29.34.06.16.22.25.33.37.1.11.21.22.32.32.11.1.11.28.26.34,0,.07-.03.16,0,.18.09.08.07.23.18.29v.42c-.05.1-.08.19-.14.25-.04.05-.03.11-.05.16-.05.12-.08.24-.17.34-.13.13-.28.24-.36.4s-.23.24-.32.37c-.07.09-.08.22-.19.29-.07.05-.05.16-.13.22-.07.05-.13.12-.17.16-.05.16-.1.27-.18.37-.04.06-.1.09-.12.18-.01.11-.2.14-.18.29-.1.09-.11.23-.22.33-.08.07-.1.21-.2.28-.1.28-.38.42-.53.64h-.19s-.05.05-.08.08h-.74s-.05-.04-.09-.07c-.19-.01-.38-.08-.55-.19h-.27s-.07-.06-.1-.09h-.15c-.1-.06-.21-.12-.33-.18h-.22c-.1-.06-.2-.11-.32-.18h-.24s-.07-.06-.1-.09h-.18s-.07-.06-.1-.09h-.17s-.08-.09-.11-.08c-.11,0-.19-.05-.29-.09-.07-.03-.16-.01-.24-.08-.07-.06-.2,0-.28-.1-.05-.06-.17.02-.24-.07-.05-.06-.17-.05-.22-.13h-.24c-.1-.06-.22-.12-.34-.19-.15.06-.27-.07-.41-.08-.14,0-.22-.17-.37-.1-.03-.03-.07-.06-.1-.09h-.18s-.07-.06-.1-.09h-.51c-.1.05-.16.08-.25.12-.08.08-.18.18-.27.27-.1.25-.22.49-.35.72-.05.09-.11.18-.11.27,0,.1-.08.16-.09.24-.01.1-.15.16-.1.28-.08.17-.17.33-.24.49-.06.13-.16.24-.13.4-.05.05-.11.11-.16.16-.02.1.02.21-.1.28.04.12-.14.16-.1.28.04.11-.09.14-.1.24-.01.1-.12.17-.09.28-.1.2-.22.39-.3.61-.13.07,0,.23-.12.32-.07.05-.1.17-.12.26-.04.22-.19.38-.28.63v.12c-.06.07-.13.13-.18.19,0,.05.02.11,0,.14-.06.1-.09.21-.16.3-.06.07.02.21-.1.28,0,.12-.1.2-.13.31-.13.07,0,.25-.13.31-.08.23-.21.43-.32.65.31.15.6.3.94.47.01,0,.07.07.12.12.26.02.47.19.7.29.33.15.66.33.99.48.13.06.27.12.35.25h.18c.06.06.11.11.17.17.15-.03.26.1.4.13.04.09.16.06.23.12.07.06.18.08.26.13.08.03.17.05.23.11.07.07.16.06.23.12.07.06.17.11.26.13s.13.13.23.1c.07.15.25.04.35.16.07.08.22.07.3.14.06.05.15.03.19.09.05.08.14.04.19.09.06.06.1.14.21.16.06,0,.12.08.17.13.06.05.11.11.13.13.12.23.21.41.32.63v.52s-.04.04-.06.06c-.05.1-.01.21-.03.31-.02.02-.04.04-.08.08,0,.09-.01.19-.02.3-.15.07,0,.28-.17.35v.37s-.06.06-.09.09v.36s-.06.07-.09.1v.55s-.04.04-.08.08v.28l-.1.1v.64s-.08.06-.08.08c.02.17-.14.29-.11.45-.18.18-.35.35-.53.53h-.06s-.05.04-.09.09h-.73l-.09.09h-1.01s-.06.06-.1.1h-1.1s-.06.06-.08.08h-.73s-.07.06-.1.09h-.82s-.04.04-.05.06c-.02.02-.03.04-.05.04h-1.36s-.05.05-.09.09h-.36c-.09.06-.19.09-.3.1-.17,0-.08.12-.12.17h-.14c-.07.2-.26.35-.23.59-.03.03-.06.06-.09.1v7.67s.06.06.09.1v.14c.05.09.08.16.12.25.07.07.17.17.27.27.05.02.11.03.15.07.05.05.11.04.17.05.05,0,.1.04.2.08h.67s.07.06.11.09h1s.07.06.1.09h.64s.04.04.07.07c.01,0,.02.02.04.02h1.36s.05.05.08.08h.53s.07.06.13.1h1.34c.09,0,.18-.04.25.05s.18,0,.25.06c.02.02.04.04.07.07h.18c.1.11.21.22.31.32.02.05.02.1.05.12.08.07.06.2.15.26-.02.11.05.19.08.28.03.08,0,.18,0,.27v.32s0,.11.02.13c.13.08,0,.28.16.35v.54s.04.05.06.07c.01.02.03.05.03.08v.32s.04.04.08.08v.46s.08.06.08.08c0,.18.16.32.11.5.07.14.09.3.18.43v.63c-.03.06-.08.1-.09.16-.01.09-.14.13-.1.23-.1.09-.19.18-.23.32-.14.08-.26.2-.4.26-.11.05-.16.13-.24.19h-.18l-.16.16c-.09.06-.22-.03-.28.1-.19.07-.36.17-.53.26-.19.09-.38.19-.57.29-.18.09-.36.16-.53.27-.08.05-.15,0-.22.03l-.16.16c-.19,0-.35.12-.51.2-.15.08-.33.12-.42.28h-.19c-.06.06-.11.11-.17.17-.15-.03-.27.07-.4.13s-.28.1-.33.25c-.26-.04-.4.22-.64.18-.18.21-.46.27-.69.41v.36c.06.06.12.13.18.19,0,.05-.01.1,0,.14.05.12.16.22.17.34.01.14.11.23.13.36.14.08-.01.28.16.35.02.17.16.3.2.47.1.06.06.16.08.24.03.09.09.17.14.26.04.07.04.17.12.22-.02.23.16.39.23.59.04.12.12.22.15.35.02.12.09.24.17.34-.02.17.09.3.16.44.03.06.02.14.03.21.06.06.11.11.17.17,0,.1-.01.21.1.28-.04.11.09.14.09.24,0,.09.1.13.1.24,0,.08.05.16.09.23.04.09.09.18.15.26.08.09-.03.26.13.31-.04.12.11.16.11.28,0,.08.13.17.14.25.01.14.06.26.12.36s.07.23.17.3c.01,0,0,.06,0,.07.11.12.22.23.28.29.11.05.16.08.26.13h.5c.08-.04.18-.1.31-.17h.24s.07-.06.11-.09h.17s.07-.06.1-.09h.18s.04-.04.08-.08c.04-.03.1,0,.16-.01.05-.02.1-.09.15-.08.09,0,.12-.1.19-.09.12.01.19-.06.28-.09.07-.02.15,0,.23,0,.03-.03.06-.06.1-.09.1,0,.21.01.28-.1.12.05.16-.14.28-.09.11.04.16-.11.28-.1.14,0,.26-.15.4-.07.12-.07.22-.12.34-.19h.23c.11-.07.21-.12.32-.18h.22c.09-.04.17-.12.28-.09.09-.1.21-.08.32-.11.09-.03.17-.1.28-.16h.16s.04-.04.07-.07c.09-.05.2-.01.3-.03l.06-.06s.05-.02.08-.02h.3s.08.08.12.09c.21.06.35.1.46.21.07.07.18.04.23.12.05.09.09.19.16.25.07.07.07.16.13.22.07.07.06.19.16.26.07.06.14.16.16.25.02.12.12.17.17.25.05.09.1.17.16.26.07.11.14.22.23.31-.01.14.13.19.19.29.02.03.01.09.04.12.1.11.21.22.32.32.01.17.17.24.26.35.03.04.09.06.09.1,0,.15.18.2.2.33.01.07.05.11.1.14.1.06.09.18.15.26s.03.22.11.32c.04.06.01.18,0,.27,0,.04-.02.09-.05.12-.09.09.02.25-.13.31v.17c-.08.13-.22.2-.28.35-.06.13-.19.23-.3.33-.09.1-.19.19-.29.29-.11.11-.22.21-.32.31v.1c-.14.14-.29.28-.42.42-.08.09-.18.15-.23.27-.05.12-.17.21-.26.3-.08.09-.17.17-.26.26s-.19.16-.25.26-.1.21-.2.28-.1.21-.19.29c-.08.07-.15.15-.23.22-.09.09-.17.18-.26.26s-.09.21-.19.29c-.08.06-.15.15-.23.22-.09.09-.19.16-.25.26s-.11.2-.2.28c-.09.08-.17.17-.26.26h-.14s.01.09,0,.12c-.01.03-.06.04-.09.06v.23c.18.18.37.36.55.55v.14c.12,0,.07.1.11.16.04.05.11.01.16.02h.14c.07.08.14.16.22.26v.11c.06.16.22.24.31.36h.1c.22.22.44.45.66.67.03.03.07.04.11.06h.14c.11.11.21.21.32.32v.13c-.01.06.04.08.06.11.09.1.24.1.32.22.07.1.17.17.25.26v.09c.07.07.18.07.25.16.05.06.1.16.2.16h.18v.18s.08.03.11.06c.3.29.59.59.88.88.03.03.07.04.11.06h.14c.2.2.4.4.6.6v.14h.23c.05.05.11.11.17.17h.63c.11-.06.23-.12.36-.19.01.01.02.03.03.04.08-.09.17-.18.24-.28.07-.1.21-.1.29-.19.07-.08.15-.15.23-.23.09-.09.18-.17.26-.26.09-.1.24-.1.32-.22.07-.1.15-.2.26-.25.22-.11.36-.3.54-.46.09-.07.21-.09.29-.19.06-.08.15-.15.22-.23h.09c.18-.18.36-.37.55-.55h.09c.13-.13.25-.27.39-.39s.23-.32.45-.36c.13-.13.26-.26.39-.39.07-.08.19-.07.26-.16.06-.07.17-.11.27-.17h.71c.07.1.21.08.29.18.07.08.19.13.29.18.02.01.06,0,.08.02.11.08.18.2.3.26.11.05.25.09.33.19.09.1.25.09.32.23.12.03.19.13.29.19.1.06.19.15.28.19.12.05.2.12.28.2.1-.03.14.09.23.1.12,0,.15.14.24.18.08.03.16.06.24.09.11.04.14.19.29.19.06,0,.1.11.17.15s.16.05.22.13c.04.06.12.1.16.16.06.12.13.23.23.31.02.1-.02.22.1.28v.37l-.09.09v.36c-.05.05-.11.11-.17.17v.24s-.04.07-.05.09c-.13.16-.12.38-.23.54.04.12-.08.18-.09.28,0,.09-.13.13-.09.24.03.09-.09.13-.08.19.02.16-.13.27-.1.42-.15.09-.02.3-.18.38.06.16-.14.26-.1.42v.04c-.15.06-.05.22-.13.32-.05.06-.08.15-.14.26v.21c-.06.11-.12.21-.19.33v.24s-.06.07-.09.1v.18s-.04.04-.07.07c-.05.08-.01.18-.02.26-.01.02-.02.05-.04.07-.13.16-.14.37-.23.55-.04.07-.02.16-.09.24-.04.04.03.16-.04.21-.08.06-.05.16-.12.23-.04.04-.02.14-.03.2.1.05.19.11.28.13s.13.13.24.1.16.13.28.1c.06.1.15.07.24.08.04,0,.07.08.1.07.12-.02.16.14.28.1.11-.04.14.09.24.1.1,0,.16.12.28.09.02,0,.06.02.07.04.06.07.16.05.23.12.05.06.17-.02.25.07.05.07.17.04.22.13.13-.03.22.05.33.09.09.04.17.09.28.1.1.01.2.1.3.15.1.04.22.05.32.11.09.06.21.09.3.16.1.06.25-.02.32.12.16-.03.27.09.4.14.12.04.22.12.35.15.12.02.24.09.34.17.17-.02.29.12.44.16.16.04.3.09.43.18.1.06.26-.03.31.12.12-.02.19.14.33.1.03,0,.07.05.11.07.09.04.18.1.27.11.1,0,.16.07.24.1.05.02.1.05.19.09h.49c.07-.04.13-.07.26-.15.07-.07.2-.2.31-.31.07-.13.12-.25.18-.36.06-.13.13-.25.19-.38.05-.12.11-.23.16-.34.05-.12.13-.23.24-.32,0-.05-.02-.13,0-.17.1-.14.13-.32.25-.45.14-.15.18-.36.29-.52.02-.03,0-.09,0-.15.2-.13.23-.38.36-.57.08-.11.12-.25.19-.38.06-.11.13-.23.17-.34.04-.11.12-.17.18-.25,0-.01.02-.03.02-.04-.05-.15.07-.25.12-.36.05-.13.13-.25.19-.38.02-.05.08-.09.13-.13,0-.14.08-.27.13-.39.2-.2.39-.4.58-.59h.18s.04-.04.07-.07c.03,0,.05-.02.08-.02h.58s.05.05.09.09h.27s.06.06.1.1h.46s.06.06.08.08h.36s.07.06.1.09h.27s.07.06.1.09h.54s.04.04.08.08h.37l.09.09h.35s.07.06.11.09c.11.04.27-.06.36.09.14-.03.25.07.4.13.2.2.42.42.63.63.04.09.08.15.12.24v.15s.06.07.09.1v.91s.04.04.08.08c.03.15,0,.31.02.48.02.02.04.04.08.08v1.28s.06.06.1.1v.82s.06.06.08.08v1.91s.06.07.09.1v.27s.06.07.09.1v.15c.12.12.22.24.32.34h.15c.08.01.13.1.23.11.06,0,.11.1.17.16h3.57c.06-.05.12-.12.19-.18h3.38s.04-.04.08-.08c.15-.03.31,0,.48-.02.16-.16.32-.32.49-.48.02-.1-.02-.21.1-.28v-1s.06-.07.09-.1v-1.37s.04-.04.09-.09v-.74s.05-.05.08-.08v-1.35s.06-.07.1-.13v-.26s.06-.06.08-.09v-.9s.05-.05.06-.07c.06-.11.09-.25.17-.34.17-.2.36-.37.54-.55.13-.02.23-.11.34-.16.03-.01.05-.03.08-.03h.14s.04-.04.08-.08c.08,0,.19,0,.29-.01l.08-.08c.09,0,.19,0,.29-.01l.09-.09h.3c.11,0,.25.05.33-.08.1-.02.22.02.28-.1h.45s.07-.06.1-.09h.55s.04-.04.08-.08c.09,0,.19-.01.29-.02.02-.02.04-.04.07-.07h.52c.06-.04.11-.07.18-.11.04.03.09.06.15.1h.34c.07.06.12.16.2.18.08.02.13.06.18.11.06.06.13.13.19.19.12.26.24.51.39.75,0,.12.09.21.13.31s.1.2.15.3c.06.11.12.22.18.34.05.1.11.2.15.3.04.1.11.2.14.31.03.11.13.19.16.3.02.08.07.14.13.17.08.05.04.15.1.19.09.07.05.16.07.26.15.05.16.23.25.34.07.08.07.22.14.3.06.08.05.2.15.26-.03.16.2.18.18.34.14.2.21.43.34.64.03.06.03.14.04.22.07.08.18.14.19.28.08.04.06.13.1.19.06.07.13.13.19.2.09.03.22-.02.28.1h.55s.06-.05.09-.09c.1,0,.21,0,.28-.09.12.04.16-.12.28-.1.08.01.19-.05.27-.1.11-.07.22-.15.34-.16.12,0,.2-.14.33-.1h.04c.19-.17.46-.16.65-.3.09-.06.18-.03.24-.08.08-.06.19-.07.27-.14.06-.06.17-.05.22-.13.17.02.29-.12.44-.16.16-.04.3-.1.43-.18.1-.06.26.03.32-.12.12.02.19-.13.33-.1.08.02.13-.12.23-.1.09-.1.22-.16.34-.16s.19-.14.33-.1c.09.02.13-.13.23-.09.07-.11.18-.09.28-.1.05-.05.11-.11.17-.17.14.03.24-.1.36-.1.14,0,.22-.16.37-.1.07-.11.2-.11.29-.18.1-.07.24-.08.35-.18h.28s.09-.1.14-.16c-.04-.09-.07-.18-.12-.27-.02-.04-.07-.08-.07-.11.03-.12-.1-.19-.09-.28.02-.16-.16-.26-.1-.42-.16-.07-.03-.27-.16-.34,0-.09-.02-.18-.03-.28-.05-.1-.12-.2-.17-.32-.02-.04,0-.09,0-.14-.03-.03-.06-.06-.09-.1v-.18s-.06-.07-.09-.1v-.18s-.06-.07-.09-.1v-.23s-.02-.05-.04-.07c-.13-.16-.12-.38-.23-.54.04-.16-.16-.26-.09-.42-.15-.08-.03-.3-.18-.38.06-.15-.08-.24-.1-.37-.01-.12-.06-.25-.17-.34.03-.13-.08-.22-.09-.33-.01-.17-.14-.28-.19-.53v-.15c-.17-.13-.14-.38-.27-.58v-.61c.1-.05.07-.18.15-.25.14-.11.15-.35.33-.4.16-.05.23-.23.41-.24.08-.11.21-.15.32-.23.11-.07.22-.14.32-.23.1-.09.26-.09.32-.22.11-.03.19-.12.31-.13.05,0,.07-.09.15-.08.02,0,.06-.02.07-.04.07-.13.24-.11.32-.23.06-.1.19-.07.26-.16.06-.07.13-.11.22-.14.09-.03.12-.16.25-.17.11-.01.14-.17.29-.19.07,0,.13-.15.2-.16.11-.02.14-.1.21-.15.07-.04.15-.08.25-.13h.59c.06.03.11.06.16.09.13.06.28.11.36.23.09.13.26.13.36.25.09.11.18.23.29.29.26.13.44.36.63.56.12.12.29.15.39.28.1.13.22.26.36.35.09.07.2.12.28.2.08.08.15.18.27.22.09.03.16.13.23.2.09.08.17.18.26.26.08.06.17.1.25.17.09.08.17.17.26.26.08.08.15.15.23.23.09.09.24.11.32.22.07.1.17.17.25.26.06.06.17.04.22.13.05.07.12.14.17.19h.2s.05.05.08.08h.64c.07-.04.16-.07.24-.13s.16-.14.23-.22c.17-.22.43-.31.61-.51.17-.19.36-.37.55-.55.19-.19.39-.39.58-.58.18-.18.36-.37.55-.55.07-.07.17-.1.25-.17.07-.06.13-.13.2-.19.08-.08.15-.15.23-.23.14-.15.35-.21.48-.38.12-.15.28-.28.42-.42.15-.15.3-.3.45-.45.09-.1.24-.11.32-.22s.19-.2.29-.29c.11-.11.22-.22.32-.32.1-.1.19-.19.29-.29s.19-.19.29-.29c.03-.03.05-.07.08-.1-.03-.14-.17-.18-.23-.28s-.1-.21-.19-.29c-.13-.11-.24-.23-.36-.35-.1-.1-.2-.21-.27-.34-.07-.14-.23-.24-.35-.36-.1-.1-.13-.26-.26-.35-.11-.08-.19-.2-.29-.29-.1-.09-.1-.24-.22-.32-.11-.08-.2-.19-.29-.29s-.19-.19-.29-.29c0-.03.01-.07,0-.09-.14-.14-.31-.26-.41-.43-.09-.16-.21-.28-.33-.41-.26-.26-.52-.52-.77-.78-.03-.03-.03-.08-.06-.15-.07-.07-.16-.17-.26-.26-.1-.09-.09-.25-.23-.32-.04-.13-.17-.24-.13-.4-.03-.04-.06-.07-.09-.1v-.5c.1-.19.2-.38.29-.57h-.02s.02-.02.03-.03c.1-.1.18-.21.29-.29.12-.08.11-.25.22-.32s.09-.21.19-.29c.08-.06.15-.12.19-.24.03-.1.16-.17.23-.27.05-.07.04-.17.13-.22.07-.04.07-.12.1-.19.04-.09.09-.19.16-.25.1-.08.08-.23.19-.29-.02-.13.14-.17.16-.25.03-.17.23-.23.23-.41.11-.11.21-.22.32-.32.13-.12.23-.28.41-.34.27,0,.55.01.82,0,.13,0,.19.13.33.1.06-.01.12.08.19.08.09,0,.18.01.24.1.09-.03.13.05.19.09h.23c.1.05.2.11.33.18h.22c.11.06.21.12.33.19h.25s.07.06.1.09h.18c.06.12.18.08.28.1.06.12.21.04.27.1.08.08.17.04.24.08.09.05.18.1.29.08.03.03.06.06.1.09h.18s.07.06.1.09h.17s.08.09.11.08c.11-.01.19.05.29.09.08.03.16.01.24.08.07.06.19,0,.28.1.05.05.17-.02.25.07.05.06.17.05.22.13h.27s.05.05.08.08h.48c.05-.1.15-.08.22-.08.12-.12.22-.22.37-.37,0-.02.05-.09.09-.17.06-.1.09-.21.15-.3.06-.1,0-.23.11-.32.07-.05.06-.19.12-.27.07-.11.15-.22.16-.34,0-.12.13-.19.1-.33-.02-.09.12-.13.09-.23.11-.17.2-.34.27-.53.03-.08.1-.14.09-.24-.02-.09.13-.13.09-.24.11-.07.09-.18.1-.28.05-.05.11-.11.18-.18,0-.04-.02-.11,0-.16.04-.09.08-.18.15-.26.07-.09-.01-.2.09-.29.07-.06.08-.18.13-.26.06-.1.11-.2.16-.3.05-.09.05-.22.11-.32s.13-.19.1-.33c0-.04.07-.08.09-.14.04-.1.09-.21.15-.3.05-.09.04-.22.11-.32.09-.14.12-.33.23-.45.09-.1,0-.24.12-.33.07-.05.09-.17.12-.27.01-.04,0-.11.02-.13.08-.06.05-.17.13-.23.07-.06.02-.14.04-.21-.14-.23-.47-.18-.58-.42h-.15c-1.41-.71-2.79-1.39-4.2-2.1h-.14c-.05-.05-.11-.11-.17-.17-.06,0-.15,0-.21-.03-.19-.1-.37-.22-.57-.29-.03-.09-.15-.03-.19-.1-.07-.13-.23-.12-.32-.22s-.2-.19-.29-.29c-.06-.08-.09-.17-.14-.26-.03-.05-.05-.1-.09-.17v-.7s.04-.04.08-.08v-.28s.06-.06.09-.09v-.25s.06-.07.09-.12v-.25s.06-.07.11-.13v-.36s.06-.06.08-.08v-.36s.06-.07.09-.1v-.45s.04-.04.08-.08v-.46s.06-.06.09-.09v-.41c.04-.09.08-.16.1-.22.01-.04,0-.1.02-.13.08-.11.12-.22.17-.34.02-.06.1-.11.15-.17.02-.02.05-.07.06-.06.11.03.14-.11.23-.1.08,0,.09-.08.22-.1h.65l.08-.08h.64l.1-.1h1.55s.06-.06.09-.09h.63s.07-.06.11-.09h.81s.07-.06.1-.09h1.28s.04-.04.08-.08h.41c.18-.09.31-.16.47-.24.07-.07.16-.16.26-.26.01-.04.02-.08.03-.12.01-.03.04-.04.07-.07v-.45s.06-.07.09-.1v-7.21s-.06-.07-.09-.1h0Zm-25.51-22.91l.98.94c.32.31.54.55.65.72s.17.34.18.51c0,.2-.04.4-.13.6s-.24.39-.45.6c-.25.25-.49.42-.74.51-.24.09-.5.12-.76.07.13.39-.05.85-.56,1.38h-.01c-.05.06-.13.14-.23.25-.48.49-.71.85-.7,1.1l-1.02-.98c.07-.11.14-.22.23-.33.09-.11.19-.22.3-.33.07-.07.15-.15.25-.24.1-.09.17-.16.2-.19.26-.26.41-.47.45-.62.04-.15-.02-.3-.18-.45l-.18-.17-1.72,1.71-.86-.83,4.3-4.26h0Zm-4.85-1.88c.24-.24.46-.41.65-.5.28-.13.56-.17.83-.13s.55.15.82.35.47.42.58.66c.11.24.15.51.11.81-.03.21-.12.47-.29.76s-.47.73-.9,1.31c-.44.58-.77.98-1.01,1.23-.24.24-.46.41-.66.5-.28.13-.55.17-.82.14-.27-.04-.55-.15-.82-.35s-.47-.42-.58-.66c-.12-.24-.15-.52-.11-.81.03-.21.13-.46.29-.76.17-.29.47-.73.91-1.31s.78-.99,1.01-1.23h-.01Zm-2.9-3.27l2.49,1.34-.57,1.02-1.42-.76-.54.95,1.31.71-.59,1.06-1.31-.71-1.25,2.22-1.07-.58,2.95-5.25Zm.26,9.28c6.06,4.51,10.24,11.41,11.14,19.3h-15.62c-.58-2.22-1.75-4.2-3.34-5.77l7.81-13.53h.01Zm11.14,25.8c-.91,7.89-5.08,14.79-11.14,19.3l-7.81-13.53c1.58-1.57,2.75-3.55,3.34-5.77h15.62-.01Zm-18.75-34.15l-.14-3.65,1.25.37-.07,1.96,1.04-1.67,1.27.37-2.15,2.97-.74,2.44-1.2-.35.74-2.44h0Zm-6.08-4.59l1.69.23.11,2.59s0,.17-.01.48c0,.31-.01.62-.02.93.06-.23.14-.5.23-.84.09-.33.14-.52.15-.55l.8-2.45,1.67.23-.81,5.94-1.14-.16.73-4.58-1.45,4.48-.92-.13-.19-4.7-.53,4.61-1.14-.16.81-5.94.02.02Zm-1.71-.04l.03,1.16-1.62.02.02,1.1,1.5-.02.03,1.2-1.5.02.03,1.31,1.62-.02.03,1.22-2.83.04-.13-6,2.83-.04h0Zm-6.3.42c.49-.07.85-.07,1.1,0,.25.06.46.2.64.42.14.17.25.39.34.68.09.28.2.82.32,1.61s.19,1.33.19,1.63-.04.54-.12.74c-.1.25-.26.45-.48.57s-.57.23-1.06.3l-1.33.19-.92-5.94,1.33-.19h-.01Zm-3.68.73l2.8,5.47-1.17.33-.48-1.06-.92.26.18,1.15-1.18.33-.64-6.07,1.39-.39.02-.02Zm8.61,6.29c3.96,0,7.73.82,11.15,2.3l-7.81,13.53c-1.06-.29-2.18-.44-3.33-.44s-2.27.16-3.33.44l-7.81-13.53c3.42-1.48,7.19-2.3,11.15-2.3h-.02Zm7,28.1c0,3.87-3.14,7-7,7s-7-3.14-7-7,3.14-7,7-7,7,3.14,7,7Zm-21.88-31.45c.03-.3.12-.55.28-.76.16-.21.4-.39.7-.51.52-.22.99-.22,1.4,0s.77.67,1.08,1.33l.02.05-1.08.46c-.17-.37-.33-.62-.47-.74-.14-.12-.29-.15-.46-.08-.18.08-.26.22-.24.43.02.21.21.71.57,1.5l.05.1c.39.85.66,1.36.81,1.52s.32.21.5.13c.17-.07.25-.19.26-.36,0-.17-.08-.44-.25-.82l-.11-.24,1.09-.47s.04.07.05.1c.02.04.04.09.08.17.31.67.41,1.22.3,1.66-.11.43-.42.76-.95.99-.31.13-.6.19-.87.16-.27-.02-.53-.13-.78-.31-.17-.13-.35-.34-.53-.63-.18-.29-.42-.76-.72-1.42s-.5-1.15-.6-1.48c-.1-.32-.14-.59-.12-.8v.02Zm-4.59-1.2l6.17,6.34-1.45.92-1.11-1.26-1.14.72.74,1.49-1.47.93-3.47-8.05,1.73-1.09Zm2.69,10.1l7.81,13.53c-1.58,1.57-2.75,3.55-3.34,5.77h-15.62c.91-7.89,5.08-14.79,11.14-19.3h0Zm4.48,25.8c.59,2.22,1.75,4.2,3.34,5.77l-7.81,13.53c-6.06-4.51-10.24-11.41-11.14-19.3h15.62,0Zm-26.21-4.39l.06-2.39,8.59.2-.05,2.16c-.02.66-.05,1.13-.11,1.41s-.15.53-.28.73c-.19.31-.44.53-.75.69-.31.15-.67.22-1.09.21-.37,0-.7-.09-.99-.24-.29-.15-.56-.4-.83-.73-.2.38-.47.66-.81.85s-.74.27-1.2.26c-.38,0-.74-.08-1.08-.22s-.63-.33-.86-.57c-.23-.23-.39-.51-.48-.84s-.13-.84-.11-1.52h-.01Zm.55,8.1l-.2-1.64c.12-.05.25-.09.38-.13.13-.03.28-.06.43-.08.1,0,.21-.02.35-.03s.23-.02.27-.03c.36-.05.61-.12.73-.24.12-.11.17-.29.14-.54l-.04-.29-2.39.3-.17-1.38,5.97-.74.19,1.57c.06.52.09.89.07,1.13s-.08.44-.18.6c-.12.19-.27.34-.47.45-.19.11-.43.18-.71.22-.34.04-.64.02-.89-.07s-.46-.26-.64-.49c-.14.46-.56.74-1.28.85h-.02c-.07,0-.18.03-.32.05-.67.09-1.08.26-1.22.49h0Zm.47,1.97l-.3-1.38,5.88-1.29.3,1.38-5.88,1.29Zm1.32,4.49l-.29-.93.34-.17c-.2-.09-.36-.2-.49-.34s-.22-.31-.29-.52c-.07-.23-.1-.46-.08-.69s.09-.44.21-.64c.14-.25.37-.46.69-.64s.88-.4,1.69-.66c.58-.18,1.05-.3,1.41-.36.36-.06.65-.06.86,0,.3.08.56.23.77.45s.37.51.49.87c.18.56.16,1.04-.05,1.42-.22.38-.63.67-1.24.86-.02,0-.06.02-.1.03-.05.01-.08.02-.11.03l-.41-1.28.07-.02c.33-.1.55-.22.67-.33.12-.12.15-.25.1-.41-.06-.19-.19-.29-.38-.31-.2-.02-.61.08-1.25.28l-.57.18-.39.13c-.64.2-1.03.36-1.17.48s-.19.27-.13.45.17.29.35.33c.17.04.42,0,.75-.1.07-.02.13-.04.17-.06.04-.01.08-.03.11-.04l-.17-.53,1-.32.58,1.82-3.14,1v.02Zm3.58,7.11l-.74-1.21,4.14-2.52-.59-.96.24-.15-4.66,2.15-.58-1.25,2.27-1.05-.47-1.03-2.27,1.05-.59-1.28,5.46-2.52.59,1.28-2.06.95.47,1.03,2.06-.95.53,1.16h0l1.94,3.18-1,.61-.62-1.01-4.14,2.52h.02Zm6.96,3.1l-2.65,2.49-1.39-1.47,6.26-5.89,3.22,3.42-1.22,1.14-1.83-1.95-1.14,1.07,1.7,1.8-1.26,1.18-1.7-1.8h.01Zm10.91,10.65c-.13.18-.27.32-.41.42-.25.18-.52.27-.82.26-.3,0-.65-.1-1.04-.29-.36-.18-.63-.37-.81-.59-.18-.22-.27-.48-.29-.77-.02-.21.02-.46.11-.74s.28-.73.58-1.35l1.03-2.12-.16.24-1-.64-2.6,4.09-1.19-.76,2.6-4.09-.95-.6.22-.35-1.94,2.41c-.27.34-.49.58-.66.72-.16.14-.33.25-.5.32-.28.12-.57.15-.86.07-.29-.07-.61-.24-.95-.52-.31-.25-.53-.5-.65-.76-.12-.25-.16-.52-.11-.82.03-.21.12-.44.27-.7.15-.25.44-.65.87-1.18l2.03-2.52,1.11.89-2.36,2.93c-.36.44-.55.74-.58.89s.03.28.17.4.29.14.43.08c.14-.06.39-.32.74-.75l2.36-2.93,1.04.84,3.1,1.97,1.22.6-1.65,3.39c-.25.51-.37.85-.37,1s.09.27.25.35c.17.08.31.07.44-.02.12-.1.31-.4.55-.9l1.65-3.39,1.26.61-1.68,3.45c-.19.39-.35.67-.48.85h.03Zm4.29-.36c.35.32.42.83.21,1.52v.02c-.02.07-.05.18-.1.31-.21.64-.24,1.08-.09,1.31l-1.56-.53c0-.13.02-.26.05-.4.03-.13.07-.28.12-.42.03-.09.07-.2.12-.33.05-.13.08-.21.09-.25.12-.35.15-.6.11-.76-.05-.16-.19-.28-.43-.36l-.27-.09-.78,2.28-1.32-.45,1.95-5.69,1.5.51c.49.17.84.31,1.05.43s.36.26.46.42c.12.19.18.39.2.62.01.22-.03.47-.12.74-.11.33-.26.58-.45.77-.19.18-.43.3-.72.36h-.02Zm4.85-.76l-1.84-.4-.23,1.08,1.69.37-.26,1.18-1.69-.37-.28,1.28,1.84.4-.26,1.19-3.21-.7,1.28-5.88,3.21.7-.25,1.14h0Zm-5.6-7.33l7.81-13.53c1.06.29,2.18.44,3.33.44s2.27-.16,3.33-.44l7.81,13.53c-3.42,1.48-7.19,2.3-11.15,2.3s-7.73-.82-11.15-2.3h.02Zm11.96,12.6h-2.06l.02-3.65-1.96-4.96h2.16l.82,2.73.85-2.71h2.19l-2,4.95v3.64h-.02Zm6.01-2.01c0,.34-.06.61-.16.82-.13.28-.33.51-.59.67-.26.17-.58.27-.97.33-.39.05-.73.03-1.02-.06-.29-.09-.54-.26-.75-.5-.14-.17-.26-.42-.36-.74-.1-.32-.19-.84-.29-1.56s-.14-1.25-.13-1.58c0-.34.06-.61.15-.81.14-.29.33-.51.59-.68s.58-.27.97-.32.73-.03,1.02.06c.29.09.54.26.74.5.15.17.27.42.37.74s.19.84.29,1.56c.09.71.14,1.24.13,1.58h.01Zm4.39-.3c-.07.3-.22.54-.45.73s-.56.34-.98.45c-.39.1-.72.13-1,.08-.28-.05-.52-.18-.73-.4-.15-.15-.28-.36-.4-.63-.11-.27-.26-.74-.43-1.4l-.82-3.13,1.38-.36.95,3.65c.14.55.27.88.37,1,.1.11.24.15.42.1.18-.05.29-.15.32-.3s-.02-.5-.16-1.04l-.95-3.65,1.35-.35.97,3.71c.11.42.17.74.19.96s0,.41-.04.59h.01Zm3.45-.61l-2.51-3.11c.23.44.45.88.65,1.3.2.42.38.84.54,1.25l.38.94-1.18.47-2.23-5.58,1.36-.54,2.46,3.01c-.28-.56-.51-1.05-.7-1.46-.19-.41-.34-.76-.46-1.05l-.35-.88,1.17-.47,2.23,5.58-1.37.55h.01Zm4.66-2.3l-.24-.3c-.05.21-.12.39-.24.54-.11.15-.26.28-.45.38-.21.12-.44.19-.66.21-.23.02-.45,0-.67-.08-.27-.09-.52-.28-.76-.55-.24-.28-.57-.79-.98-1.53-.29-.53-.5-.97-.63-1.32s-.19-.63-.17-.84c.02-.31.12-.59.3-.84s.43-.46.76-.65c.52-.29.99-.36,1.41-.22s.78.49,1.09,1.04c.01.02.03.05.05.1.02.04.04.08.05.1l-1.17.64-.04-.06c-.17-.3-.32-.5-.46-.6s-.28-.1-.42-.02c-.17.1-.25.24-.23.44.02.2.19.59.52,1.17l.29.52.2.36c.32.59.56.94.7,1.06.15.12.3.13.47.04s.25-.23.25-.4c0-.18-.08-.42-.25-.72-.04-.07-.07-.12-.09-.16s-.04-.07-.06-.1l-.48.27-.51-.92,1.68-.92,1.59,2.89-.85.47h0Zm4.32-2.84l-5.66-6.46,3.53-3.09,1.1,1.26-2.02,1.77,1.04,1.19,1.86-1.63,1.14,1.3-1.86,1.63,1.23,1.41,2.02-1.77,1.15,1.31-3.53,3.09h0Zm5.73-5.59l-3.66-1.61c.41.29.8.57,1.17.86s.72.57,1.06.86l.77.66-.83.96-4.55-3.94.96-1.11,3.57,1.54c-.5-.37-.93-.7-1.29-.98-.36-.28-.65-.52-.89-.73l-.71-.62.82-.95,4.55,3.94-.96,1.11h-.01Zm3.09-4.16l-.35-.16c.06.21.07.4.04.59-.03.19-.1.37-.23.55-.14.2-.3.37-.49.49-.19.12-.4.2-.63.23-.28.04-.59,0-.93-.14-.34-.13-.86-.44-1.57-.91-.5-.34-.89-.63-1.16-.88-.27-.25-.45-.47-.54-.67-.12-.29-.17-.58-.12-.88.04-.3.17-.61.38-.92.33-.49.71-.77,1.15-.84.43-.07.92.07,1.45.43.02.01.05.03.09.06.04.03.07.05.09.07l-.75,1.11-.06-.04c-.29-.19-.51-.3-.68-.32-.16-.02-.29.04-.39.18-.11.16-.11.33,0,.49s.44.43,1,.81l.49.33.34.23c.56.37.92.58,1.11.62.18.04.33-.02.44-.18s.12-.32.04-.47c-.08-.16-.26-.33-.55-.52-.06-.04-.12-.08-.15-.1-.04-.02-.07-.04-.1-.06l-.31.46-.87-.59,1.07-1.59,2.73,1.84-.54.81v-.03Zm.98-1.62l-5.27-2.89.68-1.24,5.27,2.89-.68,1.24Zm2.06-4.19l-3.98-.44c.48.15.94.3,1.38.46.44.16.86.33,1.27.5l.93.4-.5,1.16-5.52-2.39.58-1.35,3.87.4c-.59-.2-1.1-.39-1.53-.55-.42-.16-.78-.3-1.07-.43l-.87-.37.5-1.15,5.52,2.39-.58,1.35v.02Zm.91-2.29l-5.76-1.73.94-3.14,1.12.34-.54,1.8,1.06.32.5-1.66,1.16.35-.5,1.66,1.26.38.54-1.8,1.17.35-.94,3.14h0Zm1.14-4l-5.91-1.09.59-3.23,1.15.21-.34,1.85,1.09.2.31-1.71,1.19.22-.31,1.71,1.29.24.34-1.85,1.2.22-.59,3.23h-.01Zm.87-6.53c-.13.03-.26.05-.4.05h-.44c-.1,0-.21-.02-.35-.03-.14,0-.22-.02-.27-.03-.37-.02-.62,0-.76.09s-.22.26-.24.51l-.02.29,2.4.16-.09,1.39-6-.4.11-1.58c.03-.52.08-.89.15-1.12.06-.23.16-.42.29-.55.15-.16.33-.28.54-.35.21-.07.46-.1.74-.08.35.02.63.1.86.24s.41.34.54.6c.22-.42.69-.62,1.41-.6h.02c.08,0,.18,0,.33,0,.68.03,1.11-.05,1.29-.25l-.11,1.64h0Zm-.24-2.49c-.29.32-.74.51-1.36.54h-.33l-.08-1.29h.18c.33-.03.56-.08.69-.17s.19-.22.18-.41c0-.15-.07-.26-.18-.34s-.25-.11-.43-.1c-.29.02-.56.24-.8.68-.04.07-.07.12-.1.16,0,0-.02.04-.04.07-.35.59-.61.96-.79,1.11-.14.11-.3.19-.48.26-.18.06-.38.1-.59.11-.53.03-.95-.1-1.26-.38-.32-.29-.49-.7-.52-1.23-.03-.58.08-1.03.36-1.36.28-.32.69-.5,1.25-.54h.2l.08,1.26h-.07c-.26.02-.46.07-.59.16s-.19.21-.18.37c0,.13.06.24.16.31.1.08.23.11.38.1.25-.02.51-.26.77-.74.05-.09.09-.15.11-.2.02-.04.05-.09.09-.16.28-.51.53-.84.73-.99.13-.09.28-.17.46-.23.17-.06.36-.09.57-.1.6-.04,1.07.09,1.42.39.34.29.53.73.57,1.31.04.61-.09,1.08-.38,1.4h-.02Z"/>
        <path class="cls-1" d="m51.37,40.63s.06,0,.1-.01c.13-.02.23-.05.31-.11.08-.05.14-.13.18-.23.03-.08.04-.22.03-.43-.02-.21-.07-.61-.16-1.21l-.04-.27c-.08-.49-.14-.83-.18-1-.04-.17-.09-.29-.14-.34-.06-.08-.14-.13-.23-.16s-.22-.03-.36-.01c-.04,0-.08.01-.1.02-.02,0-.04,0-.06.01l.58,3.75h.07Z"/>
        <path class="cls-1" d="m79.01,46.91c.18.17.35.25.51.24.16-.01.34-.12.54-.31.18-.18.28-.35.28-.5s-.09-.31-.27-.48c-.01-.01-.03-.03-.06-.05-.03-.02-.04-.04-.06-.05l-1.05,1.04s.03.03.05.06c.02.02.04.04.05.05h.01Z"/>
        <polygon class="cls-1" points="36.18 40.16 37.87 43.57 38.71 43.04 36.18 40.16"/>
        <path class="cls-1" d="m23.32,70.79c.3,0,.53-.08.7-.26s.25-.45.26-.79v-.2l-1.94-.05v.13c-.01.4.06.69.23.88.16.19.41.29.76.3h-.01Z"/>
        <polygon class="cls-1" points="26.83 86.1 26.07 86.56 26.87 86.19 26.83 86.1"/>
        <polygon class="cls-1" points="36.59 97.23 36.58 97.22 36.17 97.85 36.64 97.27 36.59 97.23"/>
        <polygon class="cls-1" points="39.69 99.2 39.64 99.17 39.25 99.96 39.72 99.22 39.69 99.2"/>
      </g>
      <path class="cls-4" d="m41.25,46.59c.44.38.9.75,1.33,1.15,1.86,1.72,3.5,3.59,4.84,5.71.9,1.42,1.62,2.92,2.07,4.52.24.88.38,1.77.48,2.67.11,1.01.16,2.02.13,3.04-.03,1.06-.12,2.12-.27,3.17-.32,2.31-.91,4.57-1.52,6.83-.39,1.44-.76,2.88-1.11,4.33-.39,1.58-.5,3.19-.44,4.81.05,1.31.21,2.61.59,3.88.3,1,.72,1.96,1.43,2.77.21.24.46.44.7.65.08.07.17.11.28.17.04-.08.07-.14.1-.2.61-1.37,1.23-2.73,1.99-4.04.48-.83,1.01-1.62,1.56-2.41.29-.42.67-.79,1.02-1.17.52-.59,1.03-1.17,1.55-1.76.03-.03.05-.06.11-.12-.01.09-.01.14-.03.19-.4,1.29-.7,2.59-.9,3.92-.19,1.22-.23,2.44-.13,3.66.1,1.16.29,2.31.51,3.45.01.06.03.12.06.19.58-.3,1.13-.62,1.65-.99,3.08-2.16,5.63-4.78,7.48-7.97.73-1.26,1.32-2.57,1.69-4.02.05.09.09.14.11.2.23.57.39,1.16.49,1.76.16.93.22,1.87.19,2.82-.05,1.4-.26,2.78-.6,4.14-.42,1.68-1.01,3.3-1.73,4.88-.03.06-.05.12-.07.17v.04c.06-.01.12-.01.18-.03,2.58-.78,4.86-2.02,6.74-3.89,1.09-1.08,2.07-2.24,2.97-3.46.07-.1.15-.2.26-.3-.03.26-.06.52-.1.79-.3,1.84-.83,3.62-1.64,5.32-.83,1.74-1.91,3.3-3.37,4.62-1.04.94-2.25,1.61-3.55,2.15-1.66.68-3.4,1.13-5.18,1.45-1.11.2-2.22.38-3.34.45-1.06.07-2.13.09-3.2.04-1.8-.08-3.53-.45-5.2-1.06-.8-.29-1.61-.55-2.38-.89-.78-.35-1.55-.72-2.27-1.16-1.9-1.16-3.5-2.61-4.65-4.46-.83-1.33-1.36-2.76-1.61-4.28-.28-1.71-.39-3.43-.33-5.15.1-2.84.81-5.55,2.13-8.1.71-1.38,1.48-2.72,2.23-4.08.78-1.42,1.49-2.86,2.03-4.37.5-1.4.86-2.84,1.08-4.31.22-1.42.3-2.84.2-4.27-.22-3.09-1.15-5.98-2.72-8.68-.53-.92-1.13-1.79-1.82-2.61-.02-.02-.03-.05-.05-.08l.03-.05v-.03Z"/>
    </g>
    <g>
      <path class="cls-1" d="m30.32,137.21v-12.89h3.01v4.87h2.42v-4.87h2.95v12.89h-2.95v-5.35h-2.42v5.35h-3.01Z"/>
      <path class="cls-1" d="m41.91,137.21v-12.89h3.01v5.35l2.25-5.35h3.08l-2.8,5.64,2.86,7.25h-3.16l-1.58-4.66-.65,1.23v3.43h-3.01Z"/>
      <path class="cls-1" d="m52.28,124.32h3.05v8.08c0,1.22.08,1.98.23,2.27.15.29.43.44.82.44s.67-.15.82-.45c.15-.3.23-1.05.23-2.25v-8.08h2.99v8.23c0,.93-.04,1.63-.12,2.09s-.21.86-.4,1.2c-.31.58-.75,1.01-1.33,1.28s-1.34.41-2.27.41c-.86,0-1.56-.13-2.1-.38s-.97-.66-1.29-1.22c-.23-.4-.39-.9-.48-1.52-.09-.62-.14-1.67-.14-3.14v-6.96Z"/>
      <path class="cls-1" d="m63.22,132.84h2.76v.38c0,.71.08,1.21.25,1.5s.45.44.85.44c.32,0,.57-.11.75-.33s.28-.52.28-.9c0-.63-.45-1.22-1.35-1.8-.14-.1-.26-.18-.33-.23-.03-.02-.08-.05-.14-.09-1.21-.81-1.96-1.43-2.26-1.84-.21-.31-.37-.66-.49-1.05s-.17-.82-.17-1.28c0-1.13.33-2.01.98-2.65.65-.64,1.55-.96,2.7-.96,1.24,0,2.19.32,2.85.95s.98,1.54.98,2.74v.42h-2.7v-.16c0-.56-.09-.99-.26-1.28-.18-.29-.43-.44-.77-.44-.28,0-.51.1-.69.31s-.26.47-.26.81c0,.55.49,1.13,1.47,1.74.18.12.32.21.41.27.08.04.19.11.33.21,1.05.67,1.73,1.23,2.03,1.69.18.3.33.63.42,1.01.1.38.15.79.15,1.23,0,1.29-.33,2.28-1,2.98-.67.7-1.63,1.05-2.87,1.05-1.31,0-2.29-.33-2.94-1-.66-.67-.98-1.66-.98-2.98v-.26c0-.09.01-.24.03-.44l-.03-.04Z"/>
      <path class="cls-1" d="m75.3,137.21v-10.39h-2.41v-2.5h7.97v2.5h-2.54v10.39h-3.02Z"/>
    </g>
  </g>
  <g>
    <g>
      <path class="cls-2" d="m119.08,51.82l-2.15,4.76h-2.52l9.06-19.79,9.06,19.79h-2.52l-2.15-4.76h-8.78,0Zm4.39-9.9l-3.36,7.65h6.72l-3.36-7.65Z"/>
      <path class="cls-2" d="m148.02,41.17c-1.4-1.21-3.27-1.87-5.04-1.87-4.29,0-7.47,3.55-7.47,7.75s3.27,7.75,7.47,7.75c1.87,0,3.64-.75,5.04-1.96v2.8c-1.49.84-3.36,1.31-4.95,1.31-5.41,0-9.9-4.29-9.9-9.8s4.48-9.99,10.08-9.99c1.68,0,3.36.37,4.76,1.31v2.71h.01Z"/>
      <path class="cls-2" d="m153.53,51.82l-2.15,4.76h-2.52l9.06-19.79,9.06,19.79h-2.52l-2.15-4.76h-8.78,0Zm4.29-9.9l-3.36,7.65h6.72l-3.36-7.65Z"/>
      <path class="cls-2" d="m168.28,37.53h3.92c5.79,0,10.64,3.08,10.64,9.43s-4.76,9.62-10.74,9.62h-3.83v-19.04h.01Zm2.43,16.89h.84c4.85,0,9.06-1.77,9.06-7.37s-4.2-7.38-9.06-7.38h-.84v14.75Z"/>
      <path class="cls-2" d="m185.27,37.53h10.18v2.15h-7.84v5.32h7.65v2.15h-7.65v7.19h7.84v2.15h-10.18v-18.95h0Z"/>
      <path class="cls-2" d="m201.61,44.07h0l-2.24,12.51h-2.43l3.92-19.79,6.53,14.94,6.53-14.94,3.92,19.79h-2.43l-2.24-12.51h-.09l-5.69,12.98-5.79-12.98h0Z"/>
      <path class="cls-2" d="m217.94,37.53h2.71l4.67,8.12,4.67-8.12h2.71l-6.16,10.74v8.31h-2.33v-8.31l-6.25-10.74h-.02Z"/>
      <path class="cls-2" d="m243.9,39.77v5.32h6.63v2.15h-6.63v9.34h-2.33v-19.04h9.24v2.15h-6.91v.09h0Z"/>
      <path class="cls-2" d="m272.09,47.05c0,5.6-4.48,9.9-9.99,9.9s-9.99-4.29-9.99-9.9,4.48-9.9,9.99-9.9,9.99,4.48,9.99,9.9Zm-2.33,0c0-4.2-3.08-7.66-7.56-7.66s-7.56,3.55-7.56,7.66,3.45,7.65,7.56,7.65c4.11.09,7.56-3.27,7.56-7.65Z"/>
      <path class="cls-2" d="m286.18,56.58h-2.89l-5.6-8.03h-1.03v8.03h-2.33v-19.04h2.89c1.68,0,3.55,0,5.04.84,1.59.93,2.52,2.71,2.52,4.57,0,2.71-1.77,4.95-4.57,5.32l5.97,8.31h0Zm-9.43-9.99h.75c2.43,0,5.04-.47,5.04-3.45s-2.8-3.36-5.13-3.36h-.65v6.81h0Z"/>
      <path class="cls-2" d="m295.15,37.53h2.33c3.55,0,7,.93,7,5.23,0,1.4-.75,2.99-2.05,3.64v.09c2.24.37,3.83,2.61,3.83,4.85,0,3.83-3.27,5.32-6.63,5.32h-4.48v-19.14h0Zm2.43,8.51h.56c2.24,0,4.11-.47,4.11-3.17s-1.77-3.08-4.01-3.08h-.65v6.25h0Zm0,8.4h1.77c2.15,0,4.48-.65,4.48-3.36s-2.71-3.27-4.85-3.27h-1.49v6.63h.09,0Z"/>
      <path class="cls-2" d="m320.73,56.58h-2.89l-5.6-8.03h-1.03v8.03h-2.33v-19.04h2.89c1.68,0,3.55,0,5.04.84,1.59.93,2.52,2.71,2.52,4.57,0,2.71-1.77,4.95-4.57,5.32l5.97,8.31h0Zm-9.52-9.99h.75c2.43,0,5.04-.47,5.04-3.45s-2.8-3.36-5.13-3.36h-.65v6.81h0Z"/>
      <path class="cls-2" d="m324.83,56.58h-2.33v-19.04h2.33v19.04Z"/>
      <path class="cls-2" d="m345.74,46.96v.75c0,5.23-3.64,9.24-8.96,9.24s-9.62-4.57-9.62-9.9,4.39-9.99,9.9-9.99c2.99,0,5.88,1.31,7.75,3.64l-1.68,1.59c-1.4-1.87-3.64-3.08-5.97-3.08-4.29,0-7.56,3.45-7.56,7.75,0,4.01,3.27,7.75,7.38,7.75,2.99,0,6.16-2.52,6.25-5.6h-4.95v-2.15h7.47-.01Z"/>
      <path class="cls-2" d="m359.28,45.19v-7.65h2.33v19.04h-2.33v-9.15h-9.06v9.15h-2.33v-19.04h2.33v7.65s9.06,0,9.06,0Z"/>
      <path class="cls-2" d="m370.2,56.58h-2.33v-16.8h-4.48v-2.15h11.39v2.15h-4.48v16.8h-.1Z"/>
      <path class="cls-2" d="m118.8,71.42v5.32h6.63v2.15h-6.63v9.34h-2.33v-18.95h9.24v2.15h-6.91Z"/>
      <path class="cls-2" d="m130.38,69.27v11.2c0,3.08.93,5.97,4.57,5.97s4.57-2.89,4.57-5.97v-11.2h2.33v12.04c0,4.2-2.61,7.37-7,7.37s-6.91-3.17-6.91-7.37v-12.04h2.44Z"/>
      <path class="cls-2" d="m150.36,88.32h-2.33v-16.9h-4.48v-2.15h11.3v2.15h-4.48v16.9h-.01Z"/>
      <path class="cls-2" d="m158.76,69.27v11.2c0,3.08.93,5.97,4.57,5.97s4.57-2.89,4.57-5.97v-11.2h2.33v12.04c0,4.2-2.61,7.37-7,7.37s-6.91-3.17-6.91-7.37v-12.04h2.44Z"/>
      <path class="cls-2" d="m185.36,88.32h-2.89l-5.6-8.03h-1.03v8.03h-2.33v-19.04h2.89c1.68,0,3.55,0,5.04.84,1.59.93,2.52,2.71,2.52,4.57,0,2.71-1.77,4.95-4.57,5.32l5.97,8.31h0Zm-9.43-9.99h.75c2.43,0,5.04-.47,5.04-3.45s-2.8-3.36-5.13-3.36h-.65v6.81h0Z"/>
      <path class="cls-2" d="m187.32,69.27h10.18v2.15h-7.84v5.32h7.65v2.15h-7.65v7.19h7.84v2.15h-10.18v-18.95h0Z"/>
      <path class="cls-2" d="m205.71,69.27h2.71l4.67,8.12,4.67-8.12h2.71l-6.16,10.74v8.31h-2.33v-8.31l-6.25-10.74h-.02Z"/>
      <path class="cls-2" d="m240.72,78.8c0,5.6-4.48,9.9-9.99,9.9s-9.99-4.29-9.99-9.9,4.48-9.9,9.99-9.9,9.99,4.48,9.99,9.9Zm-2.43,0c0-4.2-3.08-7.66-7.56-7.66s-7.56,3.55-7.56,7.66,3.45,7.65,7.56,7.65,7.56-3.36,7.56-7.65Z"/>
      <path class="cls-2" d="m245.02,69.27v11.2c0,3.08.93,5.97,4.57,5.97s4.57-2.89,4.57-5.97v-11.2h2.33v12.04c0,4.2-2.61,7.37-6.91,7.37s-7-3.17-7-7.37v-12.04h2.44Z"/>
      <path class="cls-2" d="m259.67,68.43l14.28,14.94v-14h2.33v19.79l-14.28-14.94v14.19h-2.33v-19.98Z"/>
      <path class="cls-2" d="m296.92,78.7v.75c0,5.23-3.64,9.24-8.96,9.24s-9.62-4.57-9.62-9.9,4.39-9.99,9.9-9.99c2.99,0,5.88,1.31,7.75,3.64l-1.68,1.59c-1.4-1.87-3.64-3.08-5.97-3.08-4.29,0-7.56,3.45-7.56,7.75,0,4.01,3.27,7.75,7.37,7.75,2.99,0,6.16-2.52,6.25-5.6h-4.95v-2.15h7.47Z"/>
      <path class="cls-2" d="m306.63,69.27h10.18v2.15h-7.84v5.32h7.65v2.15h-7.65v7.19h7.84v2.15h-10.18v-18.95h0Z"/>
      <path class="cls-2" d="m319.51,68.43l14.28,14.94v-14h2.33v19.79l-14.28-14.94v14.19h-2.33v-19.98Z"/>
      <path class="cls-2" d="m356.85,78.7v.75c0,5.23-3.64,9.24-8.96,9.24s-9.62-4.57-9.62-9.9,4.39-9.99,9.9-9.99c2.99,0,5.88,1.31,7.75,3.64l-1.68,1.59c-1.4-1.87-3.64-3.08-5.97-3.08-4.29,0-7.56,3.45-7.56,7.75,0,4.01,3.27,7.75,7.37,7.75,2.99,0,6.16-2.52,6.25-5.6h-4.95v-2.15h7.47Z"/>
      <path class="cls-2" d="m361.43,88.32h-2.33v-19.04h2.33v19.04Z"/>
      <path class="cls-2" d="m364.79,68.43l14.28,14.94v-14h2.33v19.79l-14.28-14.94v14.19h-2.33v-19.98Z"/>
      <path class="cls-2" d="m384.77,69.27h10.18v2.15h-7.84v5.32h7.65v2.15h-7.65v7.19h7.84v2.15h-10.18v-18.95h0Z"/>
      <path class="cls-2" d="m397.93,69.27h10.18v2.15h-7.75v5.32h7.65v2.15h-7.65v7.19h7.84v2.15h-10.18v-18.95h-.09Z"/>
      <path class="cls-2" d="m422.85,88.32h-2.89l-5.6-8.03h-.93v8.03h-2.33v-19.04h2.89c1.68,0,3.55,0,5.04.84,1.59.93,2.52,2.71,2.52,4.57,0,2.71-1.77,4.95-4.57,5.32l5.88,8.31h-.01Zm-9.43-9.99h.75c2.43,0,5.04-.47,5.04-3.45s-2.8-3.36-5.13-3.36h-.65v6.81h0Z"/>
      <path class="cls-2" d="m433.22,72.91c-.75-1.21-1.59-1.77-3.08-1.77s-3.17,1.03-3.17,2.71c0,1.49,1.49,2.24,2.61,2.71l1.4.56c2.71,1.03,4.67,2.52,4.67,5.69,0,3.45-2.71,5.88-6.07,5.88-3.08,0-5.51-2.24-5.88-5.32l2.43-.47c0,2.05,1.68,3.64,3.64,3.64s3.55-1.68,3.55-3.73-1.68-2.89-3.27-3.64l-1.31-.56c-2.15-.93-4.11-2.15-4.11-4.85,0-3.08,2.71-4.95,5.6-4.95,2.15,0,3.83,1.03,4.85,2.89l-1.87,1.21h.01Z"/>
    </g>
    <g>
      <path class="cls-3" d="m121.88,119.96c0,.56-.09.93-.37,1.31-.28.37-.65.47-1.21.47h-.75l-.47-2.05h.75c.28,0,.47-.19.47-.47v-5.51h-1.12c0,3.27-.37,5.97-1.03,8.12l-1.4-1.77c.56-2.15.84-4.57.84-7.28v-12.7h4.2l.09,19.88h0Zm-1.49-14.38v-3.36h-1.03v3.36h1.03Zm0,5.97v-3.92h-1.03v3.92h1.03Zm6.81,8.31c0,1.31-.56,1.96-1.77,1.96h-.47l-.56-2.05h.56c.37,0,.65-.19.65-.56v-5.41h-1.03c-.19,3.73-.56,6.44-1.21,8.22l-1.31-1.59c.56-2.24.84-4.39.84-6.63v-13.72h4.29v19.79h.01Zm-1.59-14.29v-3.36h-1.03v3.36h1.03Zm0,5.97v-3.92h-1.03v3.92h1.03Zm3.73,4.67c-.09,1.59-.28,3.08-.56,4.39l-1.12-.37c.28-1.31.47-2.71.56-4.2l1.12.19h0Zm7.19-4.4h-6.44v1.21h6.35c0,1.59-.09,3.08-.19,4.57-.09,1.49-.28,2.43-.37,2.8-.09.37-.37.65-.65.93s-.84.37-1.49.37h-.93l-.56-2.24c.47.09.84.09,1.12.09.47,0,.65-.09.84-.19.09-.09.19-.47.28-1.12s.09-1.77.19-3.27h-6.25v-13.72h1.49c.28-.56.47-1.21.75-1.96l1.87.47c-.09.47-.28.93-.56,1.49h3.73v7.47h-5.41v1.21h6.44v1.87h-.19l-.02.02Zm-5.41,8.4l-1.12.19c0-1.59-.09-2.99-.19-4.11l1.03-.09c.28,1.4.37,2.8.28,4.01h0Zm2.61-16.06v-1.03h-3.55v1.03h3.55Zm0,2.8v-1.03h-3.55v1.03h3.55Zm-1.03,11.95l-.93.28c0-.84-.09-1.77-.37-2.99l.84-.19c.19.84.37,1.87.47,2.89h-.01Zm1.49-.92l-.84.37c-.09-.75-.28-1.59-.65-2.52l.84-.19c.37,1.12.56,1.87.65,2.33h0Z"/>
      <path class="cls-3" d="m154.56,112.22l-1.4,1.49c-.37-.84-.75-1.77-1.21-2.52v10.55h-1.96v-9.24c-.56,1.31-1.31,2.71-2.33,4.2l-1.12-2.15c1.21-1.77,2.33-4.01,3.36-6.72h-3.17v-2.15h3.27v-3.17c-1.12.19-1.87.37-2.43.37l-.75-1.96c2.61-.28,4.85-.84,6.53-1.68l.93,1.87c-.65.37-1.49.65-2.24.84v3.73h2.43v2.15h-2.43v.56c1.03,1.4,1.87,2.71,2.52,3.83Zm11.58,9.24h-12.6v-2.05h5.51v-3.17h-4.67v-2.05h4.67v-2.61c-1.77.19-3.17.28-4.11.28l-.65-1.96c4.29-.09,7.94-.56,10.83-1.4l.75,1.96c-1.68.47-3.27.75-4.85.93v2.8h4.67v2.05h-4.67v3.17h5.13v2.05h-.01Zm-1.12-13.72h-9.9v-7.65h9.9v7.65Zm-2.05-2.15v-3.45h-5.88v3.45h5.88Z"/>
      <path class="cls-3" d="m195.82,109.04h-19.51v-1.77h8.78v-1.49h-7.19v-1.68h7.19v-1.4h-7.94v-1.77h7.94v-1.4h1.96v1.4h8.03v1.77h-8.03v1.4h7.19v1.68h-7.19v1.49h8.78v1.77h-.01Zm-2.43,10.08c0,.93-.19,1.59-.47,1.96-.28.37-.75.56-1.12.65-.37.09-1.49.09-3.17.09l-.56-2.05,2.89.09c.09,0,.28-.09.37-.19.09-.19.19-.28.19-.47v-.84h-11.11c-.37,1.31-1.12,2.52-2.33,3.73l-1.68-1.49c1.49-1.31,2.24-3.08,2.24-5.32v-4.67h14.75v8.5h0Zm-1.96-2.51v-1.4h-10.83v1.4h10.83Zm0-2.99v-1.31h-10.83v1.31h10.83Z"/>
      <path class="cls-3" d="m225.32,116.51h-7.65v5.23h-2.05v-5.23h-9.8v-2.24h2.99v-6.53h6.81v-3.73h-5.04c-1.21,1.68-2.43,3.08-3.45,4.29l-1.4-1.68c2.15-2.05,3.83-4.48,5.13-7.37l2.05.47c-.19.65-.56,1.4-.93,2.05h12.6v2.24h-6.81v3.73h6.35v2.24h-6.35v4.29h7.65v2.24h-.1Zm-9.71-2.24v-4.29h-4.76v4.29h4.76Z"/>
      <path class="cls-3" d="m254.91,120.9h-19.6v-2.33h8.78v-15.87h-7.75v-2.33h17.74v2.43h-7.75v15.87h8.68l-.09,2.24h-.01Z"/>
      <path class="cls-3" d="m272.84,112.22l-1.4,1.49c-.37-.84-.75-1.77-1.21-2.52v10.55h-1.96v-9.24c-.56,1.31-1.31,2.71-2.33,4.2l-1.12-2.15c1.21-1.77,2.33-4.01,3.36-6.72h-3.17v-2.15h3.27v-3.17c-1.12.19-1.87.37-2.43.37l-.75-1.96c2.61-.28,4.85-.84,6.53-1.68l.93,1.87c-.65.37-1.49.65-2.24.84v3.73h2.43v2.15h-2.43v.56c1.03,1.4,1.87,2.71,2.52,3.83Zm11.67,9.24h-12.6v-2.05h5.51v-3.17h-4.67v-2.05h4.67v-2.61c-1.77.19-3.17.28-4.11.28l-.65-1.96c4.29-.09,7.94-.56,10.83-1.4l.75,1.96c-1.68.47-3.27.75-4.85.93v2.8h4.67v2.05h-4.67v3.17h5.13v2.05h-.01Zm-1.21-13.72h-9.9v-7.65h9.9v7.65Zm-1.96-2.15v-3.45h-5.88v3.45h5.88Z"/>
      <path class="cls-3" d="m302.43,120.43h-5.41v1.31h-1.77v-19.6h2.05c.47-.93.84-1.96,1.03-2.89l1.96.47c-.37,1.12-.65,1.87-.84,2.43h2.43v7.47h-4.95v2.61h5.41l.09,8.22h0v-.02Zm-2.33-12.88v-3.36h-3.08v3.36h3.08Zm.47,10.74v-4.01h-3.55v4.01h3.55Zm13.54-16.15h-4.57v2.89h3.83v12.79c0,.75-.19,1.31-.47,1.68-.28.37-1.21.56-2.61.47l-.37-2.24c.19,0,.56.09,1.12.09.28,0,.47-.19.47-.47v-10.27h-1.87v14.66h-1.96v-14.75h-1.87v12.98h-1.87v-15.03h3.73v-2.89h-4.67v-2.15h11.11v2.24h0Z"/>
      <path class="cls-3" d="m343.6,117.91h-8.59v1.59c0,.56-.09,1.03-.37,1.4s-.56.56-.84.65c-.37.09-1.03.19-1.96.19-.47,0-.93,0-1.59-.09l-.65-2.05h2.99c.28,0,.37-.19.37-.47v-1.31h-8.87v-1.77h8.87v-1.12c1.12-.28,2.15-.56,3.08-1.03h-8.31v-1.68h11.95v1.68c-1.21.65-2.8,1.31-4.67,1.96v.19h8.59v1.87h0Zm-.28-3.74h-1.87v-2.89h-15.03v2.89h-1.96v-4.67h1.4l-.37-9.15c1.49-.09,2.89-.37,4.39-.93l.93,1.77c-1.03.37-2.15.65-3.36.75l.09,1.4h2.89v1.68h-2.8v1.4h2.8v1.68h-2.71l.09,1.49h12.32v-1.49h-2.99v-1.68h3.08l.09-1.4h-3.17v-1.68h3.17l.09-1.4h-3.45v-1.77h5.41l-.37,9.34h1.31v4.67h.02Zm-6.81-14.11c-.37.56-.84,1.03-1.49,1.59.37.37.75.75,1.03,1.12l-1.21,1.21c-.37-.47-.75-.93-1.12-1.31-.75.56-1.49.93-2.24,1.31l-.93-1.4c.65-.28,1.31-.56,1.87-1.03-.19-.19-.65-.56-1.21-1.03l1.12-1.21,1.49,1.21c.47-.37.84-.84,1.12-1.21l1.59.75h-.02Zm.09,8.03l-1.21,1.21c-.56-.75-1.03-1.21-1.49-1.68-.75.56-1.59,1.03-2.24,1.4l-.93-1.4c.56-.28,1.21-.65,1.96-1.21-.37-.37-.84-.75-1.49-1.12l1.03-1.21c.37.28.93.75,1.77,1.4.65-.56,1.03-1.03,1.21-1.4l1.4.93c-.47.56-.93,1.03-1.4,1.49.47.47.93,1.03,1.4,1.59h-.01Z"/>
      <path class="cls-3" d="m363.2,107.36c-.09,4.29-.84,7.56-2.15,9.62-1.31,2.05-3.36,3.73-6.16,4.85l-1.31-1.96c2.61-1.03,4.48-2.33,5.6-4.01-.65-.93-1.59-1.87-2.8-2.8-.56.84-1.03,1.49-1.59,2.05l-1.4-1.59c1.49-1.77,2.8-4.48,3.83-8.03l1.87.56c0,.28-.19.75-.28,1.21l4.39.09h0Zm-.28-3.72h-2.61v1.77h-1.96v-1.77h-4.67v-2.05h4.67v-2.05h1.96v2.05h2.61v2.05Zm-1.87,5.79h-2.89c-.19.47-.37,1.03-.75,1.87.93.75,1.87,1.59,2.8,2.61.37-1.12.75-2.61.84-4.48Zm12.14-5.79h-4.57v1.77h-1.96v-1.77h-2.71v-2.05h2.61v-2.05h1.96v2.05h4.57v2.05h.1Zm0,13.63c0,1.12-.19,1.96-.47,2.71s-.75,1.12-1.21,1.4c-.47.19-1.49.28-2.89.28-.93,0-1.77,0-2.43-.09-.65-.09-1.21-.28-1.49-.75-.37-.47-.56-1.03-.56-1.68v-11.76h7.56c0,3.36-.09,5.51-.19,6.35-.09.84-.47,1.4-.93,1.77-.47.37-1.21.56-2.15.56h-.75l-.56-2.05c.47,0,.84.09,1.12.09.56,0,.93-.09,1.12-.37.19-.28.28-1.59.28-4.11h-3.55v9.24c0,.28.09.56.28.65.19.09.93.19,2.05.19.93,0,1.49,0,1.77-.09s.47-.28.65-.75c.19-.47.28-1.12.28-2.05l2.05.47h.02Z"/>
    </g>
  </g>
</svg>