<?xml version="1.0" encoding="UTF-8"?>
<svg id="Layer_1" data-name="Layer 1" xmlns="http://www.w3.org/2000/svg" width="429" height="170" viewBox="0 0 429 170">
  <defs>
    <style>
      .cls-1 {
        fill: #283c67;
      }

      .cls-2 {
        fill: #936833;
      }
    </style>
  </defs>
  <g>
    <path class="cls-1" d="m116.7,78.59h-2.64v-18.73h-4.99v-2.42h12.68v2.42h-4.99v18.73h-.07,0Z"/>
    <path class="cls-1" d="m136.5,65.99v-8.55h2.64v21.15h-2.64v-10.11h-10.04v10.11h-2.64v-21.15h2.64v8.55s10.04,0,10.04,0Z"/>
    <path class="cls-1" d="m143.26,57.44h11.32v2.42h-8.69v5.91h8.47v2.42h-8.47v7.98h8.69v2.42h-11.32v-21.15h0Z"/>
    <path class="cls-1" d="m178.94,65.99v-8.55h2.64v21.15h-2.64v-10.11h-10.04v10.11h-2.64v-21.15h2.64v8.55s10.04,0,10.04,0Z"/>
    <path class="cls-1" d="m206.36,68.05c0,6.27-4.99,11.04-11.04,11.04s-11.04-4.7-11.04-11.04,4.99-11.04,11.04-11.04,11.04,4.99,11.04,11.04Zm-2.64,0c0-4.63-3.49-8.55-8.4-8.55s-8.4,3.92-8.4,8.55,3.85,8.55,8.4,8.55,8.4-3.77,8.4-8.55Z"/>
    <path class="cls-1" d="m208.93,56.45l15.88,16.59v-15.6h2.64v22.01l-15.88-16.59v15.74h-2.64v-22.15Z"/>
    <path class="cls-1" d="m250.66,67.91v.85c0,5.77-4.06,10.26-9.97,10.26s-10.68-5.13-10.68-10.97,4.84-11.04,10.97-11.04c3.28,0,6.55,1.5,8.62,4.06l-1.85,1.78c-1.5-2.07-4.06-3.42-6.62-3.42-4.7,0-8.4,3.85-8.4,8.55,0,4.42,3.63,8.62,8.19,8.62,3.28,0,6.84-2.85,6.91-6.27h-5.48v-2.42h8.33-.02Z"/>
    <path class="cls-1" d="m273.52,57.44h3.42l-9.47,9.47,9.69,11.61h-3.56l-7.98-9.83-1.07,1v8.83h-2.64v-21.08h2.64v9.19s8.97-9.19,8.97-9.19Z"/>
    <path class="cls-1" d="m299.66,68.05c0,6.27-4.99,11.04-11.04,11.04s-11.04-4.7-11.04-11.04,4.99-11.04,11.04-11.04,11.04,4.99,11.04,11.04Zm-2.64,0c0-4.63-3.49-8.55-8.4-8.55s-8.4,3.92-8.4,8.55,3.85,8.55,8.4,8.55,8.4-3.77,8.4-8.55Z"/>
    <path class="cls-1" d="m302.29,56.45l15.88,16.59v-15.6h2.64v22.01l-15.88-16.59v15.74h-2.64v-22.15Z"/>
    <path class="cls-1" d="m344.03,67.91v.85c0,5.77-4.06,10.26-9.97,10.26s-10.68-5.13-10.68-10.97,4.84-11.04,10.97-11.04c3.28,0,6.55,1.5,8.62,4.06l-1.85,1.78c-1.5-2.07-4.06-3.42-6.62-3.42-4.7,0-8.4,3.85-8.4,8.55,0,4.42,3.63,8.62,8.19,8.62,3.28,0,6.84-2.85,6.91-6.27h-5.48v-2.42h8.33-.02Z"/>
    <path class="cls-1" d="m113.28,91.06v12.46c0,3.42,1.07,6.62,5.13,6.62s5.13-3.2,5.13-6.62v-12.46h2.64v13.39c0,4.63-2.92,8.19-7.76,8.19s-7.76-3.56-7.76-8.19v-13.39h2.64-.02Z"/>
    <path class="cls-1" d="m129.73,90.06l15.88,16.59v-15.6h2.64v22.01l-15.88-16.59v15.74h-2.64s0-22.15,0-22.15Z"/>
    <path class="cls-1" d="m154.8,112.21h-2.64v-21.15h2.64v21.15Z"/>
    <path class="cls-1" d="m166.05,106.73l6.27-15.67h2.92l-9.19,22.22-9.19-22.22h2.92l6.27,15.67Z"/>
    <path class="cls-1" d="m177.31,91.06h11.32v2.42h-8.69v5.91h8.47v2.42h-8.47v7.98h8.69v2.42h-11.32v-21.15h0Z"/>
    <path class="cls-1" d="m205.29,112.21h-3.2l-6.2-8.9h-1.07v8.9h-2.64v-21.15h3.2c1.85,0,3.92,0,5.56,1,1.78,1.07,2.78,2.99,2.78,5.06,0,2.99-1.99,5.56-5.06,5.91l6.62,9.19h.01Zm-10.54-11.12h.85c2.71,0,5.63-.5,5.63-3.85s-3.13-3.77-5.77-3.77h-.71s0,7.62,0,7.62Z"/>
    <path class="cls-1" d="m217.05,95.12c-.78-1.35-1.78-1.99-3.42-1.99s-3.56,1.14-3.56,2.99c0,1.64,1.64,2.49,2.92,3.06l1.5.57c2.99,1.21,5.27,2.85,5.27,6.34,0,3.85-2.99,6.55-6.77,6.55-3.42,0-6.05-2.49-6.55-5.91l2.64-.57c0,2.35,1.85,3.99,4.06,3.99s3.92-1.92,3.92-4.13-1.85-3.28-3.63-3.99l-1.42-.64c-2.42-1.07-4.56-2.42-4.56-5.34,0-3.42,2.99-5.48,6.2-5.48,2.35,0,4.27,1.14,5.41,3.2l-1.99,1.35h-.02Z"/>
    <path class="cls-1" d="m225.52,112.21h-2.64v-21.15h2.64v21.15Z"/>
    <path class="cls-1" d="m235.42,112.21h-2.64v-18.73h-4.99v-2.42h12.68v2.42h-4.99l-.07,18.73h.01Z"/>
    <path class="cls-1" d="m240.62,91.06h3.06l5.2,9.04,5.2-9.04h3.06l-6.91,11.96v9.19h-2.64v-9.19l-6.98-11.96h.01Z"/>
    <path class="cls-1" d="m288.19,101.67c0,6.27-4.99,11.04-11.04,11.04s-11.04-4.7-11.04-11.04,4.99-11.04,11.04-11.04,11.04,4.99,11.04,11.04Zm-2.64,0c0-4.63-3.49-8.55-8.4-8.55s-8.4,3.92-8.4,8.55,3.85,8.55,8.4,8.55,8.4-3.77,8.4-8.55Z"/>
    <path class="cls-1" d="m293.61,93.48v5.91h7.34v2.42h-7.34v10.4h-2.64v-21.15h10.26v2.42s-7.62,0-7.62,0Z"/>
    <path class="cls-1" d="m322.31,95.12c-.78-1.35-1.78-1.99-3.42-1.99s-3.56,1.14-3.56,2.99c0,1.64,1.64,2.49,2.92,3.06l1.5.57c2.99,1.21,5.27,2.85,5.27,6.34,0,3.85-2.99,6.55-6.77,6.55-3.42,0-6.05-2.49-6.55-5.91l2.64-.57c0,2.35,1.85,3.99,4.06,3.99s3.92-1.92,3.92-4.13-1.85-3.28-3.63-3.99l-1.42-.64c-2.42-1.07-4.63-2.42-4.63-5.34,0-3.42,2.99-5.48,6.2-5.48,2.35,0,4.27,1.14,5.41,3.2l-1.92,1.35h-.02Z"/>
    <path class="cls-1" d="m343.67,95.12c-1.5-1.35-3.56-2.07-5.56-2.07-4.7,0-8.33,3.92-8.33,8.62s3.56,8.55,8.26,8.55c2.07,0,4.06-.78,5.63-2.21v3.13c-1.64.93-3.7,1.5-5.56,1.5-6.05,0-11.04-4.77-11.04-10.9s4.99-11.11,11.25-11.11c1.85,0,3.7.43,5.34,1.42v3.06h0Z"/>
    <path class="cls-1" d="m349.65,112.21h-2.64v-21.15h2.64v21.15Z"/>
    <path class="cls-1" d="m353.86,91.06h11.32v2.42h-8.69v5.91h8.47v2.42h-8.47v7.98h8.69v2.42h-11.32s0-21.15,0-21.15Z"/>
    <path class="cls-1" d="m368.46,90.06l15.88,16.59v-15.6h2.64v22.01l-15.88-16.59v15.74h-2.64v-22.15Z"/>
    <path class="cls-1" d="m406.42,95.12c-1.5-1.35-3.56-2.07-5.56-2.07-4.7,0-8.33,3.92-8.33,8.62s3.56,8.55,8.26,8.55c2.07,0,4.06-.78,5.63-2.21v3.13c-1.64.93-3.7,1.5-5.56,1.5-6.05,0-11.04-4.77-11.04-10.9s4.99-11.11,11.25-11.11c1.85,0,3.7.43,5.34,1.42v3.06h0Z"/>
    <path class="cls-1" d="m409.83,91.06h11.32v2.42h-8.69v5.91h8.47v2.42h-8.47v7.98h8.69v2.42h-11.32s0-21.15,0-21.15Z"/>
    <path class="cls-1" d="m113.99,140.55l-2.42,5.27h-2.85l10.11-22.01,10.11,22.01h-2.85l-2.42-5.27h-9.69,0Zm4.84-10.97l-3.77,8.55h7.48l-3.7-8.55h-.01Z"/>
    <path class="cls-1" d="m130.73,123.68l15.88,16.59v-15.6h2.64v22.01l-15.88-16.59v15.74h-2.64s0-22.15,0-22.15Z"/>
    <path class="cls-1" d="m153.02,124.67h4.34c6.48,0,11.82,3.42,11.82,10.47s-5.27,10.68-11.96,10.68h-4.27l.07-21.15h0Zm2.64,18.73h.93c5.41,0,10.04-1.99,10.04-8.19s-4.63-8.12-10.04-8.12h-.93v16.31Z"/>
    <path class="cls-1" d="m186.21,145.82h-2.64v-18.73h-4.99v-2.42h12.68v2.42h-4.99l-.07,18.73h.01Z"/>
    <path class="cls-1" d="m193.61,124.67h11.32v2.42h-8.69v5.91h8.4v2.42h-8.47v7.98h8.69v2.42h-11.32l.07-21.15h0Z"/>
    <path class="cls-1" d="m223.81,128.73c-1.5-1.35-3.56-2.07-5.56-2.07-4.7,0-8.33,3.92-8.33,8.62s3.56,8.55,8.26,8.55c2.07,0,4.06-.78,5.63-2.21v3.13c-1.64.93-3.7,1.5-5.56,1.5-6.05,0-11.04-4.77-11.04-10.9s4.99-11.11,11.25-11.11c1.85,0,3.7.43,5.34,1.42v3.06h0Z"/>
    <path class="cls-1" d="m239.76,133.22v-8.55h2.64v21.15h-2.64v-10.11h-10.04v10.11h-2.64v-21.15h2.64v8.55h10.04Z"/>
    <path class="cls-1" d="m246.17,123.68l15.88,16.59v-15.6h2.64v22.01l-15.88-16.59v15.74h-2.64v-22.15Z"/>
    <path class="cls-1" d="m289.4,135.28c0,6.27-4.99,11.04-11.04,11.04s-11.04-4.7-11.04-11.04,4.99-11.04,11.04-11.04,11.04,4.99,11.04,11.04Zm-2.64,0c0-4.63-3.49-8.55-8.4-8.55s-8.4,3.92-8.4,8.55,3.85,8.55,8.4,8.55,8.4-3.77,8.4-8.55Z"/>
    <path class="cls-1" d="m294.82,143.4h6.41v2.42h-9.04v-21.15h2.64v18.73h-.01Z"/>
    <path class="cls-1" d="m323.94,135.28c0,6.27-4.99,11.04-11.04,11.04s-11.04-4.7-11.04-11.04,4.99-11.04,11.04-11.04,11.04,4.99,11.04,11.04Zm-2.64,0c0-4.63-3.49-8.55-8.4-8.55s-8.4,3.92-8.4,8.55,3.85,8.55,8.4,8.55,8.4-3.77,8.4-8.55Z"/>
    <path class="cls-1" d="m346.02,135.21v.85c0,5.77-4.06,10.26-9.97,10.26s-10.68-5.13-10.68-10.97,4.84-11.04,10.97-11.04c3.28,0,6.55,1.5,8.62,4.06l-1.85,1.78c-1.5-2.07-4.06-3.42-6.62-3.42-4.7,0-8.4,3.85-8.4,8.55,0,4.42,3.63,8.62,8.19,8.62,3.28,0,6.84-2.85,6.91-6.27h-5.48v-2.42h8.33-.02Z"/>
    <path class="cls-1" d="m346.73,124.67h3.06l5.13,9.04,5.2-9.04h3.06l-6.91,11.96v9.19h-2.64v-9.19l-6.91-11.96h.01Z"/>
  </g>
  <g>
    <g>
      <path class="cls-1" d="m131.51,33.8v12.46h-2.64v-1.35h-14.1v1.35h-2.71v-12.32c-.5.21-1.28.5-2.42.93l-1.35-2.56c3.49-.85,6.55-2.35,9.12-4.49h-8.9v-2.35h11.82v-2.35c-4.34.14-7.41.14-9.26.14l-.93-2.64c1.07.07,2.42.07,4.06.07,7.62,0,13.46-.43,17.38-1.35l1.21,2.35c-2.64.57-5.84,1-9.69,1.28v2.42h12.11v2.35h-9.26c2.21,2.14,5.34,3.56,9.47,4.42l-1.28,2.64c-.36-.14-.78-.36-1.28-.43-.57-.14-1-.36-1.35-.57Zm-17.88-.64h6.55v-5.27c-1.64,2.35-3.85,4.13-6.55,5.27Zm15.17,2.42h-14.17v2.21h14.17v-2.21Zm-14.1,6.98h14.17v-2.56h-14.17v2.56Zm8.19-14.74v5.34h7.12c-2.92-1.14-5.27-2.92-7.12-5.34Z"/>
      <path class="cls-1" d="m151.1,37.36c-.78,3.13-1.99,5.98-3.63,8.55l-2.28-2.35c1.71-2.42,2.85-4.99,3.42-7.69l2.49,1.5h0Zm-1.78-4.64c-1.57-1.35-2.92-2.35-4.06-3.13l1.71-2.14c1.35.71,2.78,1.64,4.27,2.78l-1.92,2.49h0Zm2.78-10.26h3.85v-2.99h2.64v2.99h5.27v-2.99h2.56v2.99h4.77v2.28h-4.77v2.99h5.2v2.42h-5.48c.78,1.57,2.71,3.06,5.84,4.63l-1.21,2.56c-1.78-1.07-3.2-2.07-4.34-3.13v5.91h-9.26v1.85c0,.64.36,1,1,1h8.55c.78,0,1.28-.28,1.42-.93.14-.64.28-1.71.43-3.2l2.78,1c-.28,2.64-.71,4.27-1.21,4.77s-1.5.78-2.99.78h-9.47c-1.21,0-2.07-.21-2.56-.71-.5-.5-.71-1.35-.71-2.71v-6.41c-.5.43-1.35,1-2.64,1.78l-1.64-2.42c3.2-1.42,5.2-3.06,6.05-4.84h-4.63v-2.42h4.42v-2.85h-3.85v-1.57l-1.78,2.21c-1.57-1.42-2.99-2.56-4.27-3.35l1.92-2.14c1.64,1.07,2.99,1.99,4.13,2.85v-.36h-.02Zm4.91,12.47v2.85h6.62v-2.85h-6.62Zm2.14-4.84c-.43,1-1,1.85-1.71,2.56h7.34c-.64-.71-1.21-1.57-1.78-2.56h-3.85,0Zm-.57-5.2v2.85h5.2v-2.85s-5.2,0-5.2,0Z"/>
      <path class="cls-1" d="m187.28,23.4c-1,.21-2.49.36-4.49.5l-.57-2.42c4.27-.21,7.98-.93,11.04-2.07l1,2.35c-1.35.5-2.85.85-4.34,1.21v4.06h4.34v2.49h-4.34v.28c2.14,1.99,3.77,3.56,4.84,4.77l-1.64,2.49c-.57-.78-1.14-1.57-1.71-2.21-.5-.57-1-1.21-1.5-1.92v13.32l-2.64.14v-11.96c-.71,1.85-2.07,3.99-3.92,6.41l-1.64-2.56c2.42-2.71,4.2-5.7,5.41-8.9h-5.27v-2.49h5.34v-3.49h.09Zm6.69,16.45v-2.71l9.61-1.42v-16.52h2.71v16.24l2.56-.43v2.56l-2.56.43v8.26h-2.71v-7.91l-9.61,1.5Zm6.27-5.84c-1.99-1.64-3.7-2.92-5.2-3.85l1.71-1.92c1.42.78,3.2,1.92,5.34,3.56l-1.85,2.21Zm.5-6.98c-2.14-1.71-3.85-2.99-5.2-3.77l1.71-1.92c1.28.71,2.99,1.85,5.27,3.49l-1.78,2.21h0Z"/>
      <path class="cls-1" d="m229.37,27.67h-3.42v5.06c1.57-.5,2.64-.93,3.35-1.28v2.85c-.57.36-1.71.78-3.35,1.35v7.05c0,1.35-.21,2.28-.57,2.71-.43.43-1.28.71-2.71.71h-2.28l-.64-2.92,2.49.07c.64,0,.93-.28.93-.93v-5.84c-1.64.43-2.92.71-3.85,1l-.71-3.13c1.64-.21,3.2-.5,4.56-.85v-5.77h-4.27v-2.64h4.27v-5.91h2.85v5.91h3.42v-1.85h6.2v-4.06h2.85v4.06h6.77v2.64h-6.77v3.85h5.84v2.35c-.21,1.07-.85,2.35-1.92,4.06-1,1.64-2.07,2.99-3.13,3.92,1.92,1.57,4.06,2.71,6.48,3.35l-1.5,2.71c-2.56-.85-4.91-2.28-7.12-4.27-3.06,2.35-5.91,3.77-8.69,4.34l-1.57-2.64c2.78-.64,5.48-1.85,8.26-3.7-1.5-1.5-2.92-3.56-4.34-6.12l2.35-.93c1.35,2.35,2.64,4.2,3.99,5.48,1.92-1.57,3.35-3.56,4.2-5.98h-11.4v-2.56h5.7v-3.85h-6.2l-.07,1.78v-.02Z"/>
      <path class="cls-1" d="m272.6,29.45c.43,2.35,1.5,4.77,3.13,7.34,1.64,2.56,3.85,4.77,6.69,6.69l-2.21,2.64c-5.2-3.42-8.69-8.97-10.61-16.67h-.43c-1.28,6.91-5.13,12.46-11.61,16.74l-2.21-2.71c2.71-1.57,5.06-3.56,6.98-6.12,1.92-2.49,3.13-5.13,3.56-7.83h-9.9v-3.06h10.4c.21-1.78.36-4.13.36-7.19h2.99c0,3.28-.07,5.7-.21,7.19h12.18v3.06l-9.12-.07h0Z"/>
      <path class="cls-1" d="m313.62,34.87v2.07c-1.71.93-3.77,1.71-6.27,2.49h11.96v2.35h-11.96v1.21c0,2.07-.85,3.06-2.64,3.06h-4.2l-.64-2.35,3.92.14c.57,0,.85-.28.85-.85v-1.21h-12.46v-2.35h12.46v-1.21c1.35-.21,2.99-.64,5.06-1.21h-12.11v-2.14h16.03Zm2.56-1.28h-20.8v4.2h-2.56v-6.48h1.42l-.28-11.04c2.49-.07,4.63-.36,6.34-.85l1.28,2.14c-1.07.36-2.78.64-5.13.78l.07,1.5h4.49v1.92h-4.42v1.64h4.34v1.99h-4.34l.07,1.92h18.02v-1.92h-3.92v-1.99h4.13l.07-1.64h-4.2v-1.92h4.2v-1.57h-4.56v-2.28h7.12l-.28,11.32h1.5v6.48h-2.56v-4.2Zm-9.97-10.33c-.93.64-2.07,1.21-3.35,1.78l-1.5-1.92c1.64-.43,2.64-.85,3.13-1.21-.5-.36-1.14-.85-1.92-1.35l1.57-1.35c.71.5,1.5,1,2.28,1.57.85-.57,1.42-1.07,1.78-1.57l1.42,1.28c-.43.57-1,1.07-1.71,1.57.36.36.93.85,1.5,1.5l-1.78,1.28c-.71-1-1.21-1.57-1.42-1.57h0Zm.14,5.9c-.85.64-1.99,1.14-3.35,1.64l-1.21-1.92c1.35-.28,2.35-.64,2.99-1.07-.36-.28-1-.71-1.92-1.35l1.5-1.28c.36.21.71.43,1,.64.36.21.78.57,1.21.85.57-.36,1.21-.93,1.99-1.78l1.5,1.28c-.71.71-1.35,1.28-1.92,1.71.57.5,1.07,1,1.64,1.5l-1.85,1.42c-.93-1.07-1.42-1.64-1.57-1.64h0Z"/>
    </g>
    <g>
      <path class="cls-2" d="m73.04,146.54l-15.17-25.28s-.5-.57-.5-1.57v-46.79h-5.7v48.29c.5.5,10.04,16.74,10.04,16.74h-23.64s9.54-16.24,10.04-16.74v-48.29h-5.7v46.79c0,.93-.5,1.57-.5,1.57l-15.17,25.28h46.3Z"/>
      <g>
        <path class="cls-2" d="m68.34,40.14s2.85-11.82-7.34-19.51c0,0-4.06-3.63-11.82-3.63-6.91,0-10.97,3.63-10.97,3.63-9.33,6.48-6.91,19.51-6.91,19.51h37.04Z"/>
        <path class="cls-2" d="m32.45,43.41h34.83c.28-.64.5-1.35.71-2.07H31.73c.21.71.43,1.35.71,2.07h.01Z"/>
        <path class="cls-2" d="m66.7,44.62h-33.68c.36.71.71,1.35,1.14,2.07h31.41c.43-.71.85-1.35,1.14-2.07h0Z"/>
        <path class="cls-2" d="m36.43,49.47h26.85c.5-.5,1-1.07,1.42-1.64h-29.7c.5.57.93,1.14,1.42,1.64h.01Z"/>
        <path class="cls-2" d="m39.35,51.96h21.01c.57-.36,1.07-.78,1.57-1.21h-24.21c.57.43,1.07.78,1.64,1.21h-.01Z"/>
        <path class="cls-2" d="m42.27,53.53c2.35,1.07,4.91,1.64,7.62,1.64s5.27-.57,7.62-1.64h-15.24Z"/>
      </g>
      <path class="cls-1" d="m86,56.09h-28.49s-2.64,0-4.77,1.42c-1.64,1.14-2.78,3.7-2.85,3.85h0c-.07-.14-1.21-2.71-2.85-3.85-2.14-1.42-4.77-1.42-4.77-1.42H13.79l-5.7,9.11h26.14s.78,0,1.21.07c.78.14,2.14.57,3.56,1.57,1.92,1.42,2.49,2.14,2.92,2.56.21.21.85,1.07.85,1.07h14.24s.64-.85.85-1.07c.5-.5,1-1.21,2.92-2.56,1.42-1,2.78-1.42,3.56-1.57.5-.07,1.21-.07,1.21-.07h26.14l-5.7-9.12h.01Z"/>
      <g>
        <g>
          <path class="cls-1" d="m10.94,67.98v43.3c0,.5,0,.93.07,1.28.5,4.56,1.92,7.98,4.56,12.39,4.2,6.98,11.75,11.89,11.75,11.89l3.56-5.7s-4.84-2.56-8.76-8.55c-.78-1.21-1.57-2.28-2.07-3.42-.5-1.07-.85-1.92-1.21-2.78-.21-.64-.43-1.28-.5-1.78-.21-.78-.28-1.42-.36-2.14,0-.28-.07-1.35-.07-1.35v-43.16h-6.97v.02Z"/>
          <path class="cls-1" d="m21.84,67.98v43.51c0,.21.07.5.07.78,0,.14.07.36.07.43.14.64.28,1.28.57,2.14.5,1.42,1.35,3.2,2.56,5.2,3.2,5.2,7.83,7.55,7.83,7.55l3.56-5.56s-1.21-.64-2.64-2.07c-.93-.93-2.07-2.14-3.06-3.56-.93-1.5-1.5-2.92-1.85-4.06-.28-.93-.36-1.71-.36-2.14v-42.23h-6.77.02Z"/>
        </g>
        <g>
          <path class="cls-1" d="m88.85,67.98v43.3c0,.5,0,.93-.07,1.28-.5,4.56-1.92,7.98-4.56,12.39-4.2,6.98-11.75,11.89-11.75,11.89l-3.56-5.7s4.84-2.56,8.76-8.55c.78-1.21,1.57-2.28,2.07-3.42.5-1.07.85-1.92,1.21-2.78.21-.64.43-1.28.5-1.78.21-.78.28-1.42.36-2.14,0-.28.07-1.35.07-1.35v-43.16h6.98v.02Z"/>
          <path class="cls-1" d="m77.96,67.98v43.51c0,.21-.07.5-.07.78,0,.14-.07.36-.07.43-.14.64-.28,1.28-.57,2.14-.5,1.42-1.35,3.2-2.56,5.2-3.2,5.2-7.83,7.55-7.83,7.55l-3.56-5.56s1.21-.64,2.64-2.07c.93-.93,2.07-2.14,3.06-3.56.93-1.5,1.5-2.92,1.85-4.06.28-.93.36-1.71.36-2.14v-42.23h6.77-.02Z"/>
        </g>
      </g>
    </g>
  </g>
</svg>